<?xml version="1.0" encoding="utf-8"?>
<!-- Generator: Adobe Illustrator 26.0.2, SVG Export Plug-In . SVG Version: 6.00 Build 0)  -->
<svg version="1.1" id="Calque_1" xmlns="http://www.w3.org/2000/svg" xmlns:xlink="http://www.w3.org/1999/xlink" x="0px" y="0px"
	 viewBox="0 0 55 55" style="enable-background:new 0 0 55 55;" xml:space="preserve">
<style type="text/css">
	.st0{fill:#61D6EF;}
</style>
<g>
	<path class="st0" d="M32.6,29.3c-4.9-0.1-9-3.7-10-8.4c-0.3-0.1-0.6-0.2-0.9-0.4c-0.7-0.4-1.3-0.9-1.7-1.7
		c-0.4-0.7-0.6-1.6-0.6-2.5c0-1,0.2-1.8,0.6-2.5c0.4-0.7,1-1.3,1.8-1.7c0.7-0.4,1.6-0.6,2.5-0.6c0.9,0,1.8,0.2,2.5,0.6
		c0.7,0.4,1.3,0.9,1.8,1.7c0.4,0.7,0.6,1.6,0.6,2.5c0,1-0.2,1.8-0.6,2.5c-0.4,0.7-1,1.3-1.8,1.7c-0.3,0.2-0.7,0.3-1.1,0.4
		c0.9,3.1,3.7,5.3,7,5.5l0-10.9c-0.1-0.1-0.3-0.1-0.4-0.2c-0.7-0.4-1.3-0.9-1.7-1.7c-0.4-0.7-0.6-1.6-0.6-2.5c0-1,0.2-1.8,0.6-2.5
		c0.4-0.7,1-1.3,1.8-1.7c0.7-0.4,1.6-0.6,2.5-0.6c0.9,0,1.8,0.2,2.5,0.6C37.9,7.4,38.5,8,39,8.7c0.4,0.7,0.6,1.6,0.6,2.5
		c0,1-0.2,1.8-0.6,2.5c-0.4,0.7-1,1.3-1.8,1.7c-0.1,0.1-0.2,0.1-0.3,0.2v15.9c3.5-1.4,6.2-4.5,6.8-8.4c-0.3-0.1-0.6-0.2-0.8-0.3
		c-0.7-0.4-1.3-0.9-1.7-1.7c-0.4-0.7-0.6-1.6-0.6-2.5c0-1,0.2-1.8,0.6-2.5c0.4-0.7,1-1.3,1.8-1.7c0.7-0.4,1.6-0.6,2.5-0.6
		s1.8,0.2,2.5,0.6c0.7,0.4,1.3,0.9,1.8,1.7c0.4,0.7,0.6,1.6,0.6,2.5c0,1-0.2,1.8-0.6,2.5c-0.4,0.7-1,1.3-1.8,1.7
		c-0.4,0.2-0.8,0.4-1.3,0.5c-0.8,5.4-4.6,9.8-9.7,11.3v4.2c6.7-0.7,12.5-4.9,15.3-10.8V14.6c0-6.6-5.3-11.9-11.9-11.9H24.6
		c-5.6,3.4-9.4,9.6-9.4,16.7c0,8.5,5.5,15.8,13.1,18.4v4.8c-10.2-2.8-17.7-12.1-17.7-23.2c0-6.5,2.6-12.3,6.7-16.7h-2.8
		C8,2.6,2.6,8,2.6,14.6v25.7c0,6.6,5.3,11.9,11.9,11.9h18V29.3z"/>
	<path class="st0" d="M47.3,18.6c0-0.7-0.2-1.3-0.6-1.7c-0.4-0.4-0.8-0.6-1.4-0.6c-0.6,0-1,0.2-1.4,0.6c-0.4,0.4-0.6,1-0.6,1.7
		c0,0.7,0.2,1.3,0.5,1.7c0.4,0.4,0.8,0.6,1.4,0.6c0.5,0,1-0.2,1.4-0.6C47.1,19.9,47.3,19.3,47.3,18.6z"/>
	<path class="st0" d="M36.9,43.3l0,8.9h3.4c6.6,0,11.9-5.3,11.9-11.9v-4.5C48.3,40,42.9,42.7,36.9,43.3z"/>
	<path class="st0" d="M24.2,14.1c-0.6,0-1,0.2-1.4,0.6c-0.4,0.4-0.6,1-0.6,1.7c0,0.7,0.2,1.3,0.5,1.7c0.4,0.4,0.8,0.6,1.4,0.6
		c0.5,0,1-0.2,1.4-0.6c0.4-0.4,0.6-1,0.6-1.7c0-0.7-0.2-1.3-0.6-1.7C25.2,14.3,24.7,14.1,24.2,14.1z"/>
	<path class="st0" d="M34.7,8.9c-0.6,0-1,0.2-1.4,0.6c-0.4,0.4-0.6,1-0.6,1.7c0,0.7,0.2,1.3,0.5,1.7c0.4,0.4,0.8,0.6,1.4,0.6
		c0.5,0,1-0.2,1.4-0.6c0.4-0.4,0.6-1,0.6-1.7c0-0.7-0.2-1.3-0.6-1.7C35.7,9.1,35.3,8.9,34.7,8.9z"/>
</g>
</svg>
