<?xml version="1.0" encoding="utf-8"?>
<!-- Generator: Adobe Illustrator 26.2.1, SVG Export Plug-In . SVG Version: 6.00 Build 0)  -->
<svg version="1.1" id="Calque_1" xmlns="http://www.w3.org/2000/svg" xmlns:xlink="http://www.w3.org/1999/xlink" x="0px" y="0px"
	 viewBox="0 0 137.9 275.8" enable-background="new 0 0 137.9 275.8" xml:space="preserve">
<g>
	<g>
		<g>
			<path fill="#53B272" d="M68,113.6c4.8-13.9,13.7-26,25.3-34.7L55.7,27.2C33.4,43.8,16.2,67,7.2,93.9L68,113.6z"/>
			<path fill="#F8B016" d="M67.1,159.4c-2.1-6.8-3.2-14.1-3.2-21.6c0-7.5,1.1-14.7,3.2-21.4L6.2,96.7c-4.1,13-6.2,26.8-6.2,41.1
				c0,14.4,2.2,28.3,6.3,41.4L67.1,159.4z"/>
			<path fill="#009FB0" d="M58.1,25.4l37.6,51.7c12-8.3,26.5-13.2,42.2-13.2l0-63.9C108.2,0,80.6,9.4,58.1,25.4z"/>
			<path fill="#F0852B" d="M93.4,197c-11.6-8.7-20.5-20.8-25.4-34.7L7.2,182.1c9.1,26.9,26.3,50.1,48.6,66.6L93.4,197z"/>
			<path fill="#E8474A" d="M58.3,250.5c22.5,15.9,50,25.3,79.6,25.3l0-63.9c-15.6,0-30.1-4.9-42.1-13.1L58.3,250.5z"/>
		</g>
	</g>
	<g>
		<path fill="#222022" d="M52.2,222.9c-10.8,0-19.6-8.8-19.6-19.6l0,0c0-10.8,8.8-19.6,19.6-19.6c10.8,0,19.6,8.8,19.6,19.6
			C71.8,214.1,63,222.9,52.2,222.9z M35.6,203.3c0,9.2,7.4,16.6,16.6,16.6c9.2,0,16.6-7.4,16.6-16.6c0-9.2-7.4-16.6-16.6-16.6
			C43,186.7,35.6,194.1,35.6,203.3L35.6,203.3z"/>
		<g>
			<circle fill="#222022" cx="59.5" cy="201.8" r="1.7"/>
			<circle fill="#222022" cx="44.8" cy="201.8" r="1.7"/>
		</g>
		<g>
			<path fill="#222022" d="M48.2,211.8c-0.2,0-0.4-0.1-0.5-0.3c-0.2-0.3-0.1-0.7,0.2-0.9c1.5-1,2.9-1.5,4.3-1.5
				c1.9,0,3.4,0.8,4.4,1.5c0.3,0.2,0.4,0.6,0.2,0.9c-0.2,0.3-0.6,0.4-0.9,0.2c-0.8-0.6-2.2-1.3-3.7-1.3c-1.1,0-2.3,0.4-3.6,1.3
				C48.4,211.8,48.3,211.8,48.2,211.8z"/>
		</g>
	</g>
	<g>
		<path fill="#222022" d="M52.2,94.1c-10.8,0-19.6-8.8-19.6-19.6c0-10.8,8.8-19.6,19.6-19.6s19.6,8.8,19.6,19.6
			C71.8,85.3,63,94.1,52.2,94.1z M52.2,57.9c-9.2,0-16.6,7.4-16.6,16.6c0,9.2,7.4,16.6,16.6,16.6s16.6-7.4,16.6-16.6
			C68.8,65.3,61.3,57.9,52.2,57.9z"/>
		<g>
			<circle fill="#222022" cx="59.5" cy="72.9" r="1.7"/>
			<circle fill="#222022" cx="44.9" cy="72.9" r="1.7"/>
		</g>
		<g>
			<path fill="#222022" d="M52.2,82.9c-1.9,0-3.4-0.8-4.4-1.5c-0.3-0.2-0.4-0.6-0.2-0.9c0.2-0.3,0.6-0.4,0.9-0.2
				c0.8,0.6,2.2,1.3,3.7,1.3c1.1,0,2.3-0.4,3.6-1.3c0.3-0.2,0.7-0.1,0.9,0.2c0.2,0.3,0.1,0.7-0.2,0.9C55,82.4,53.6,82.9,52.2,82.9z"
				/>
		</g>
	</g>
	<g>
		<path fill="#222022" d="M33.3,157.6c-10.8,0-19.6-8.8-19.6-19.6s8.8-19.6,19.6-19.6c10.8,0,19.6,8.8,19.6,19.6
			C52.9,148.8,44.2,157.6,33.3,157.6z M33.3,121.4c-9.2,0-16.6,7.4-16.6,16.6c0,9.2,7.4,16.6,16.6,16.6c9.2,0,16.6-7.4,16.6-16.6
			C49.9,128.8,42.5,121.4,33.3,121.4z"/>
		<g>
			<circle fill="#222022" cx="40.7" cy="136.4" r="1.7"/>
			<circle fill="#222022" cx="26" cy="136.4" r="1.7"/>
		</g>
		<g>
			<path fill="#222022" d="M37.1,145.8l-7.5,0c-0.4,0-0.7-0.3-0.7-0.7c0-0.4,0.3-0.7,0.7-0.7l7.5,0c0.4,0,0.7,0.3,0.7,0.7
				C37.8,145.5,37.5,145.8,37.1,145.8z"/>
		</g>
	</g>
	<g>
		<path fill="#222022" d="M107.1,258.9c-10.8,0-19.6-8.8-19.6-19.6c0-10.8,8.8-19.6,19.6-19.6c5.2,0,10.2,2,13.9,5.7
			c3.7,3.7,5.7,8.6,5.7,13.9C126.7,250.1,117.9,258.9,107.1,258.9z M107.1,222.7c-9.2,0-16.6,7.4-16.6,16.6
			c0,9.2,7.4,16.6,16.6,16.6c9.2,0,16.6-7.4,16.6-16.6c0-4.4-1.7-8.6-4.9-11.7S111.5,222.7,107.1,222.7z"/>
		<path fill="#222022" d="M109.8,249.4h-5.4c-0.2,0-0.4-0.1-0.5-0.2c-0.2-0.2-0.2-0.4-0.2-0.6c0-3.4,1.5-6,3.5-6
			c1.9,0,3.4,2.6,3.5,6c0,0.2-0.1,0.5-0.2,0.6C110.2,249.3,110,249.4,109.8,249.4z M104.9,248.1h4.3c-0.2-2.5-1.2-4.2-2.1-4.2
			C106.1,243.9,105.1,245.6,104.9,248.1z"/>
		<g>
			<g>
				<path fill="#222022" d="M117.2,239.8c-0.1,0-0.1,0-0.2,0l-4-1.4c-0.3-0.1-0.5-0.4-0.4-0.7c0-0.3,0.2-0.5,0.5-0.6l4-0.9
					c0.4-0.1,0.7,0.1,0.8,0.5c0.1,0.4-0.1,0.7-0.5,0.8l-1.8,0.4l1.8,0.7c0.3,0.1,0.5,0.5,0.4,0.8
					C117.7,239.6,117.5,239.8,117.2,239.8z"/>
			</g>
			<g>
				<path fill="#222022" d="M96.9,239.8c-0.3,0-0.5-0.2-0.6-0.4c-0.1-0.3,0.1-0.7,0.4-0.8l1.8-0.7l-1.8-0.4
					c-0.4-0.1-0.6-0.4-0.5-0.8c0.1-0.4,0.4-0.6,0.8-0.5l4,0.9c0.3,0.1,0.5,0.3,0.5,0.6c0,0.3-0.2,0.6-0.4,0.7l-4,1.4
					C97,239.8,97,239.8,96.9,239.8z"/>
			</g>
		</g>
	</g>
	<g>
		<path fill="#222022" d="M110.1,55.5c-10.8,0-19.6-8.8-19.6-19.6c0-10.8,8.8-19.6,19.6-19.6s19.6,8.8,19.6,19.6
			C129.7,46.7,120.9,55.5,110.1,55.5z M110.1,19.3c-9.2,0-16.6,7.4-16.6,16.6c0,9.2,7.4,16.6,16.6,16.6s16.6-7.4,16.6-16.6
			C126.7,26.7,119.2,19.3,110.1,19.3z"/>
		<path fill="#222022" d="M110.1,46.3c-2.1,0-3.7-2.9-3.8-6.7c0-0.2,0.1-0.5,0.2-0.6l0.2-0.2l0.3,0h6.4l0.2,0.2
			c0.2,0.2,0.2,0.4,0.2,0.6C113.8,43.5,112.2,46.3,110.1,46.3z M107.6,40.1c0.2,2.9,1.4,4.9,2.5,4.9c1.1,0,2.3-2,2.5-4.9H107.6z
			 M112.5,39.6C112.5,39.6,112.5,39.6,112.5,39.6C112.5,39.6,112.5,39.6,112.5,39.6z M107.6,39.6C107.6,39.6,107.6,39.6,107.6,39.6
			C107.6,39.6,107.6,39.6,107.6,39.6z"/>
		<g>
			<g>
				<path fill="#222022" d="M113.6,35c-0.1,0-0.1,0-0.2,0c-0.3-0.1-0.6-0.5-0.5-0.8c0.4-1.6,1.5-2.4,3.1-2.4c1.7,0,2.8,1.3,3.1,2.4
					c0.1,0.3-0.1,0.7-0.5,0.8c-0.4,0.1-0.7-0.1-0.8-0.5c-0.1-0.5-0.7-1.4-1.8-1.4c-1,0-1.6,0.4-1.8,1.4
					C114.1,34.8,113.9,35,113.6,35z"/>
			</g>
			<g>
				<path fill="#222022" d="M101.6,35c-0.1,0-0.1,0-0.2,0c-0.3-0.1-0.6-0.5-0.5-0.8c0.4-1.6,1.5-2.4,3.1-2.4c1.7,0,2.8,1.3,3.1,2.4
					c0.1,0.3-0.1,0.7-0.5,0.8c-0.3,0.1-0.7-0.1-0.8-0.5c-0.1-0.5-0.7-1.4-1.8-1.4c-1,0-1.6,0.4-1.8,1.4
					C102.2,34.8,101.9,35,101.6,35z"/>
			</g>
		</g>
	</g>
</g>
</svg>
