<svg xmlns="http://www.w3.org/2000/svg" xmlns:xlink="http://www.w3.org/1999/xlink" viewBox="0 0 112.93 113.47">
  <defs>
    <style>
      .a {
        fill: #b0cfff;
      }

      .a, .b, .c {
        opacity: 0.5;
      }

      .b {
        fill: #b8e6ff;
      }

      .c {
        fill: #cef2ff;
      }

      .d, .e {
        fill: #fff;
      }

      .e, .j {
        opacity: 0.3;
      }

      .f {
        fill: url(#a);
      }

      .g {
        fill: url(#b);
      }

      .h, .j {
        fill: #fff688;
      }

      .i {
        fill: url(#c);
      }

      .k {
        opacity: 0.2;
      }
    </style>
    <linearGradient id="a" x1="40.18" y1="79.82" x2="95.31" y2="79.82" gradientUnits="userSpaceOnUse">
      <stop offset="0" stop-color="#ffb900"/>
      <stop offset="1" stop-color="#ffe300"/>
    </linearGradient>
    <linearGradient id="b" x1="56.05" y1="67.64" x2="56.05" y2="113.38" gradientUnits="userSpaceOnUse">
      <stop offset="0" stop-color="#f8ff94"/>
      <stop offset="0.23" stop-color="#e9c200"/>
      <stop offset="0.61" stop-color="#dd8e00"/>
      <stop offset="1" stop-color="#aa6300"/>
    </linearGradient>
    <linearGradient id="c" x1="56.97" y1="67.8" x2="56.97" y2="106.69" gradientUnits="userSpaceOnUse">
      <stop offset="0" stop-color="#f8ff94"/>
      <stop offset="0.32" stop-color="#ffe000"/>
      <stop offset="0.7" stop-color="#ffa400"/>
      <stop offset="1" stop-color="#d4a900"/>
    </linearGradient>
  </defs>
  <g>
    <path class="a" d="M35.07,28.24s19.27-63.73,44.2,0c66.29,1.54,15.41,42.9,15.41,42.9s20.82,70.15-36.48,29c-57.79,38.54-39.83-28-39.83-28C-30.19,28.49,35.07,28.24,35.07,28.24Z"/>
    <path class="b" d="M36.25,29.77s18.23-60.27,41.8,0c62.71,1.45,14.59,40.58,14.59,40.58s19.68,66.35-34.51,27.46C3.46,134.27,20.46,71.32,20.46,71.32-25.47,30,36.25,29.77,36.25,29.77Z"/>
    <path class="c" d="M36.74,32.07s17.8-55.92,40.81,0c61.21,1.35,14.24,37.66,14.24,37.66S111,131.29,58.1,95.21C4.73,129,21.32,70.63,21.32,70.63-23.52,32.29,36.74,32.07,36.74,32.07Z"/>
    <path class="d" d="M12.12,34.55s9.55-5,24.13-4.78c5.52-18.39,13.57-24,13.57-24s-7.73,6.32-13.21,25.27C24.68,30.71,12.12,34.55,12.12,34.55Z"/>
    <path class="e" d="M58.07,95.21s-23.65,16.4-33.8,8.26C35.78,108,58.07,93,58.07,93Z"/>
    <path class="d" d="M71.2,18.33c1.45,3.74.5,7.59-2.13,8.61S63.15,25.75,61.7,22s-.5-7.6,2.13-8.62S69.75,14.59,71.2,18.33Z"/>
    <path class="d" d="M76.33,31.28a2.84,2.84,0,1,1-2.84-2.83A2.84,2.84,0,0,1,76.33,31.28Z"/>
    <path class="f" d="M95.31,73.46c-16.43-2.29-35.22-.69-55.13,2.73,0,0,28.33,11.28,28.83,11s25.42-5,25.42-5Z"/>
    <g>
      <path class="g" d="M49.49,74.59a113.14,113.14,0,0,0-35.91-7c1.46,1.46,3,3,4.79,4.53-.44.15-18.34,67.12,40.26,28.31,51.23,36.76,39.63-15.56,36.68-27C84.17,79.66,69.53,81.71,49.49,74.59Z"/>
      <path class="h" d="M49.49,74.59A105.54,105.54,0,0,0,18.12,67.8c1.18,1.15,2.16,2.58,3.52,3.8,0,0-17.6,62.66,37.06,26.21,46.17,33.13,38.18-10,35-23.48C82.67,79.85,68.56,81.37,49.49,74.59Z"/>
      <path class="i" d="M49.49,74.59c-11-4.12-22.65-6.66-31.37-6.79,1,.9,2.41,2.86,3.52,3.8,0,0-16.32,57.64,37.05,23.81,43.74,29.83,38.22-7.4,35-21.08C82.72,79.62,68.11,81.59,49.49,74.59Z"/>
      <path class="e" d="M58.69,95.41s-23.08,16.2-33.23,8.06C37,108,58.77,93.36,58.77,93.36Z"/>
      <path class="j" d="M83.43,77.78C82.18,80,81,82.14,79.83,84c-3.39,5.53-8.87,11.29-14,16,36.41,21.34,30.76-13.06,27.72-25.6A42.86,42.86,0,0,1,83.43,77.78Z"/>
      <path class="j" d="M48.72,74.31a121.42,121.42,0,0,0-23-5.9c-1.63,1.69-3,3.33-4.54,4.94C20,78.7,17.83,90.2,20.64,97.81c10.73-5.27,27.86-14.45,36-21A72,72,0,0,1,48.72,74.31Z"/>
    </g>
    <g class="k">
      <path class="d" d="M62.86,9.35C50.22.59,40.8,21.31,37.78,29.19,46.65,22,55.49,14.93,62.86,9.35Z"/>
      <path class="d" d="M94.43,33.78a90.16,90.16,0,0,0-16.88-1.71c-.78-1.9-1.56-3.66-2.33-5.31-10,5.34-20.4,11.62-25.71,17.1C43,50.6,30.63,63.35,20.56,73.75c-1.17,5.36-3,16.45-.19,24.06,11-5.39,28.58-14.49,36.5-21.08C68.82,66.8,86.58,46.16,94.43,33.78Z"/>
      <path class="d" d="M105.56,38.5c-2,2.31-3.66,4.35-4.71,5.75C96.38,50.2,86.2,72.15,78.94,84c-3.39,5.53-8.62,11.06-13.73,15.74,44,25.79,26.58-30,26.58-30S118.26,49.27,105.56,38.5Z"/>
      <path class="d" d="M34.14,32.16c-9,.48-37.73,3.51-27,22.64C14.58,48.38,24.26,40.25,34.14,32.16Z"/>
    </g>
  </g>
</svg>
