<svg xmlns="http://www.w3.org/2000/svg" xmlns:xlink="http://www.w3.org/1999/xlink" viewBox="0 0 110.08 96.24">
  <defs>
    <style>
      .a {
        fill: #8aafff;
        opacity: 0.38;
      }

      .b, .c, .i {
        fill: #fff;
      }

      .b {
        opacity: 0.3;
      }

      .d {
        fill: #388dff;
        opacity: 0.1;
      }

      .e {
        fill: #b8e6ff;
      }

      .e, .h {
        opacity: 0.5;
      }

      .f {
        fill: #e5acaa;
      }

      .g {
        fill: url(#a);
      }

      .h {
        fill: #961900;
      }

      .i {
        opacity: 0.15;
      }
    </style>
    <linearGradient id="a" x1="55.32" y1="44.83" x2="54.91" y2="96.84" gradientUnits="userSpaceOnUse">
      <stop offset="0" stop-color="#ff0e00"/>
      <stop offset="1" stop-color="#930b00"/>
    </linearGradient>
  </defs>
  <g>
    <path class="a" d="M49.9,10.05a7.61,7.61,0,0,0,10.24,0S84-11.56,102.8,13.18C131,51.58,67.53,90.83,67.53,90.83s-13.51,10.8-27.87,0S-17.22,47,7.81,11.76C12.07,4.65,31.41-10.14,49.9,10.05Z"/>
    <path class="b" d="M66.59,9.72c-3.86,9.78,6.48,7.47,6.48,7.47s15.74-6.27,23.63,7.63,0,34.48,0,34.48,20.5-21.18,4.8-42.2S68.05,7.93,66.59,9.72Z"/>
    <path class="c" d="M36.7,3.32c0,.78-2.44,1.42-5.46,1.42s-5.45-.64-5.45-1.42S28.23,1.9,31.24,1.9,36.7,2.54,36.7,3.32Z"/>
    <path class="c" d="M94.13,9.41C97.48,12.3,99,16,97.5,17.76s-5.41.77-8.75-2.12S83.89,9,85.38,7.29,90.78,6.52,94.13,9.41Z"/>
    <path class="c" d="M102.72,21.34c.46,1.59.07,3.1-.87,3.37s-2.06-.81-2.51-2.41-.07-3.1.87-3.37S102.27,19.74,102.72,21.34Z"/>
    <path class="b" d="M45.53,11.8A21.61,21.61,0,0,0,14,10.67C7.86,18,6.46,24.1,9.72,29.11c2.84,3.78,11.66,5.47,13.55,0S31.23,13.87,45.53,11.8Z"/>
    <path class="c" d="M35.08,7.8c0,1.45-3.06,2.63-6.83,2.63S21.41,9.25,21.41,7.8s3.06-2.64,6.84-2.64S35.08,6.34,35.08,7.8Z"/>
    <path class="d" d="M19.33,6.19A33.69,33.69,0,0,0,2.9,35.53C2.9,56.29,25,74.36,37.77,84.77c17,13.72,31.57-.12,31.57-.12L93,64.52S76.45,73.27,67,80.25s-16.13,8.58-31.91-3.77S8,48.44,8,36.67A39.21,39.21,0,0,1,19.33,6.19Z"/>
    <path class="e" d="M50.1,11.5a7.3,7.3,0,0,0,9.84,0s23-20.78,41,3C128,51.43,67.05,89.17,67.05,89.17s-13,10.39-26.8,0-54.69-42.12-30.62-76C13.73,6.31,32.32-7.91,50.1,11.5Z"/>
    <path class="f" d="M76.13,30.4a122.07,122.07,0,0,1-44,0A67.9,67.9,0,0,0,.53,28.48C-4.62,57.17,28,82.17,40.11,91.28c14.36,10.81,27.87,0,27.87,0S114.9,61.92,109.66,29.2C100.29,27.08,89.45,27.43,76.13,30.4Z"/>
    <path class="g" d="M75.13,30.4a122.07,122.07,0,0,1-44,0A62.84,62.84,0,0,0,3.67,28C1.61,38,3.85,48.81,11.13,59.78,20.56,74,35.13,85,41.35,89.63A20.27,20.27,0,0,0,53.72,94a23.13,23.13,0,0,0,13-4.35l.09-.08.11-.06c.36-.22,35.39-22.37,40.52-48.8a32.43,32.43,0,0,0-.31-11.84C98,27,87.92,27.55,75.13,30.4Z"/>
    <path class="h" d="M35.56,76.93c-15.79-12.35-27.1-28-27.1-39.8a38.76,38.76,0,0,1,.39-9.62c-1.55.08-3,.21-4.59.39A36.91,36.91,0,0,0,3.35,36c0,20.76,22.1,38.83,34.87,49.24,17,13.72,31.57-.11,31.57-.11L93.46,65s-16.56,8.74-26,15.73S51.34,89.28,35.56,76.93Z"/>
    <path class="i" d="M47.2,52.14C57.83,63.84,77,62.4,100.62,54.2A44.26,44.26,0,0,0,105.68,41c1.73-8.92-.31-17.41-6-25.22C94.2,8.62,87.79,5,80.59,5,69.93,5,61,12.93,60.92,13a10,10,0,0,1-6.45,2.52,9.54,9.54,0,0,1-6.23-2.45l-.1-.08-.09-.1C42.38,6.69,36.22,3.55,29.73,3.55c-9,0-17,6.37-19.62,10.67l0,.07-.05.06C3.16,24,1.24,34.3,4.24,45.05,16.53,41.1,30.12,41.17,47.2,52.14Z"/>
  </g>
</svg>
