<svg xmlns="http://www.w3.org/2000/svg" viewBox="0 0 112.93 113.47">
  <defs>
    <style>
      .a {
        fill: #b0cfff;
      }

      .a, .b, .c {
        opacity: 0.5;
      }

      .b {
        fill: #b8e6ff;
      }

      .c {
        fill: #cef2ff;
      }

      .d {
        opacity: 0.2;
      }

      .e, .f {
        fill: #fff;
      }

      .f {
        opacity: 0.3;
      }
    </style>
  </defs>
  <g>
    <path class="a" d="M35.07,28.38s19.27-63.72,44.2,0c66.29,1.54,15.41,42.91,15.41,42.91s20.82,70.14-36.48,29c-57.79,38.54-39.83-28-39.83-28C-30.19,28.63,35.07,28.38,35.07,28.38Z"/>
    <path class="b" d="M36.25,29.91s18.23-60.27,41.8,0c62.71,1.46,14.59,40.58,14.59,40.58S112.32,136.84,58.13,98C3.46,134.41,20.46,71.47,20.46,71.47-25.47,30.15,36.25,29.91,36.25,29.91Z"/>
    <path class="c" d="M36.74,32.21s17.8-55.92,40.81,0c61.21,1.35,14.24,37.66,14.24,37.66S111,131.43,58.1,95.35C4.73,129.17,21.32,70.77,21.32,70.77-23.52,32.44,36.74,32.21,36.74,32.21Z"/>
    <g class="d">
      <path class="e" d="M62.86,9.49C50.22.73,40.8,21.45,37.78,29.33,46.65,22.1,55.49,15.07,62.86,9.49Z"/>
      <path class="e" d="M94.43,33.92a90.16,90.16,0,0,0-16.88-1.71c-.78-1.9-1.56-3.66-2.33-5.31C65.2,32.25,54.82,38.52,49.51,44,43,50.75,30.63,63.49,20.56,73.9c-1.17,5.35-3,16.44-.19,24,11-5.39,28.58-14.49,36.5-21.07C68.82,66.94,86.58,46.3,94.43,33.92Z"/>
      <path class="e" d="M105.56,38.64c-2,2.31-3.66,4.35-4.71,5.75-4.47,6-14.65,27.9-21.91,39.75-3.39,5.53-8.62,11.06-13.73,15.74,44,25.79,26.58-30,26.58-30S118.26,49.41,105.56,38.64Z"/>
      <path class="e" d="M34.14,32.3c-9,.48-37.73,3.51-27,22.64C14.58,48.52,24.26,40.39,34.14,32.3Z"/>
    </g>
    <path class="e" d="M12.12,34.69s9.55-5,24.13-4.78c5.52-18.39,13.57-24,13.57-24S42.09,12.25,36.61,31.2C24.68,30.85,12.12,34.69,12.12,34.69Z"/>
    <path class="f" d="M58.07,95.35s-23.65,16.4-33.8,8.26c11.51,4.48,33.8-10.43,33.8-10.43Z"/>
    <path class="e" d="M71.2,18.47c1.45,3.74.5,7.59-2.13,8.61s-5.92-1.19-7.37-4.93-.5-7.6,2.13-8.61S69.75,14.73,71.2,18.47Z"/>
    <path class="e" d="M76.33,31.42a2.84,2.84,0,1,1-2.84-2.83A2.84,2.84,0,0,1,76.33,31.42Z"/>
  </g>
</svg>
