<svg xmlns="http://www.w3.org/2000/svg" xmlns:xlink="http://www.w3.org/1999/xlink" viewBox="0 0 110.08 96.24">
  <defs>
    <style>
      .a {
        fill: #8aafff;
        opacity: 0.38;
      }

      .b, .c, .d {
        fill: #fff;
      }

      .b {
        opacity: 0.3;
      }

      .d {
        opacity: 0.15;
      }

      .e {
        fill: #388dff;
        opacity: 0.1;
      }

      .f {
        fill: #b8e6ff;
      }

      .f, .i {
        opacity: 0.5;
      }

      .g {
        fill: #e5acaa;
      }

      .h {
        fill: url(#a);
      }

      .i {
        fill: #961900;
      }
    </style>
    <linearGradient id="a" x1="16.61" y1="80.66" x2="91.89" y2="80.66" gradientUnits="userSpaceOnUse">
      <stop offset="0" stop-color="#ff0e00"/>
      <stop offset="1" stop-color="#930b00"/>
    </linearGradient>
  </defs>
  <g>
    <g>
      <path class="a" d="M49.88,10.22a7.6,7.6,0,0,0,10.24,0S84-11.39,102.78,13.35C130.94,51.74,67.52,91,67.52,91S54,101.8,39.64,91-17.24,47.19,7.79,11.93C12.06,4.82,31.4-10,49.88,10.22Z"/>
      <path class="b" d="M66.57,9.89c-3.86,9.78,6.48,7.46,6.48,7.46S88.79,11.09,96.68,25s0,34.48,0,34.48,20.51-21.18,4.8-42.2S68,8.1,66.57,9.89Z"/>
      <path class="c" d="M36.68,3.49c0,.78-2.44,1.41-5.45,1.41s-5.46-.63-5.46-1.41,2.44-1.42,5.46-1.42S36.68,2.7,36.68,3.49Z"/>
      <path class="c" d="M94.11,9.58c3.35,2.89,4.86,6.62,3.37,8.35s-5.41.77-8.75-2.12-4.86-6.63-3.37-8.35S90.76,6.69,94.11,9.58Z"/>
      <path class="c" d="M102.7,21.5c.46,1.6.07,3.11-.86,3.37s-2.06-.81-2.52-2.4-.06-3.11.87-3.37S102.25,19.91,102.7,21.5Z"/>
      <path class="b" d="M45.52,12A21.62,21.62,0,0,0,14,10.84C7.84,18.13,6.44,24.27,9.7,29.28c2.84,3.78,11.67,5.47,13.55,0S31.21,14,45.52,12Z"/>
      <path class="c" d="M35.06,8c0,1.45-3.06,2.63-6.83,2.63S21.39,9.41,21.39,8s3.06-2.63,6.84-2.63S35.06,6.51,35.06,8Z"/>
      <path class="d" d="M47.18,52.3C57.81,64,77,62.56,100.6,54.37a44.09,44.09,0,0,0,5.06-13.18c1.73-8.92-.31-17.42-6-25.23C94.19,8.79,87.77,5.15,80.57,5.15c-10.65,0-19.61,8-19.67,8a9.93,9.93,0,0,1-6.44,2.53,9.59,9.59,0,0,1-6.24-2.45l-.1-.09L48,13.05C42.36,6.86,36.2,3.72,29.71,3.72c-9,0-17,6.37-19.62,10.67l0,.07-.05.06c-6.86,9.67-8.78,20-5.78,30.7C16.52,41.27,30.1,41.33,47.18,52.3Z"/>
      <path class="e" d="M19.31,6.36A33.68,33.68,0,0,0,2.88,35.69C2.88,56.45,25,74.52,37.75,84.93c17,13.73,31.57-.11,31.57-.11L93,64.69S76.44,73.44,67,80.42,50.87,89,35.09,76.64,8,48.61,8,36.84A39.19,39.19,0,0,1,19.31,6.36Z"/>
    </g>
    <path class="f" d="M50.08,11.67a7.31,7.31,0,0,0,9.85,0s23-20.78,41,3C128,51.6,67,89.33,67,89.33s-13,10.4-26.8,0-54.7-42.11-30.63-76C13.71,6.47,32.31-7.75,50.08,11.67Z"/>
    <g>
      <path class="g" d="M56.19,71.56C41,68.67,26.46,66.41,14.43,67.82A172.89,172.89,0,0,0,39.51,91.11c14.36,10.81,27.87,0,27.87,0S83.88,80.66,95.62,66.8C83.61,69.77,68.86,73.45,56.19,71.56Z"/>
      <path class="h" d="M52.19,70.56C39.24,68.1,27.3,67,16.61,67.62,25.39,77.9,35.75,85.71,40.75,89.47a20.33,20.33,0,0,0,12.37,4.39,23,23,0,0,0,13-4.36l.1-.07.11-.07A136.41,136.41,0,0,0,91.89,67.74C79,71.26,65.82,72.59,52.19,70.56Z"/>
      <path class="i" d="M83.79,69.83A189,189,0,0,0,66.86,80.54c-9.43,7-16.12,8.58-31.91-3.78a107,107,0,0,1-10.42-9.3c-2.12,0-4.2,0-6.23.13A187.25,187.25,0,0,0,37.62,85.05c17,13.73,31.56-.11,31.56-.11L88,69C86.58,69.28,85.18,69.57,83.79,69.83Z"/>
    </g>
  </g>
</svg>
