<svg xmlns="http://www.w3.org/2000/svg" xmlns:xlink="http://www.w3.org/1999/xlink" viewBox="0 0 100.96 100.96">
  <defs>
    <style>
      .a {
        fill: #b8e6ff;
      }

      .a, .b, .c {
        opacity: 0.5;
      }

      .b {
        fill: #76a8e5;
      }

      .c {
        fill: #569eff;
      }

      .d, .e, .f {
        fill: #fff;
      }

      .d {
        opacity: 0.2;
      }

      .e {
        opacity: 0.3;
      }

      .g {
        fill: url(#a);
      }

      .h {
        fill: url(#b);
      }

      .i {
        fill: url(#c);
      }

      .j {
        fill: url(#d);
      }

      .k {
        fill: url(#e);
      }
    </style>
    <linearGradient id="a" x1="37.72" y1="68.09" x2="100.14" y2="68.09" gradientUnits="userSpaceOnUse">
      <stop offset="0" stop-color="#aa6300"/>
      <stop offset="1" stop-color="#d48000"/>
    </linearGradient>
    <linearGradient id="b" x1="50.43" y1="56.87" x2="50.43" y2="100.96" gradientUnits="userSpaceOnUse">
      <stop offset="0" stop-color="#fffbbf"/>
      <stop offset="1" stop-color="#d47800"/>
    </linearGradient>
    <linearGradient id="c" x1="50.93" y1="57.04" x2="50.93" y2="98.74" gradientUnits="userSpaceOnUse">
      <stop offset="0" stop-color="#f8ff94"/>
      <stop offset="0.32" stop-color="#e9c300"/>
      <stop offset="0.69" stop-color="#ffd215"/>
      <stop offset="1" stop-color="#d4a000"/>
    </linearGradient>
    <linearGradient id="d" x1="48.96" y1="58.06" x2="48.96" y2="86.16" gradientUnits="userSpaceOnUse">
      <stop offset="0" stop-color="#f8ff94"/>
      <stop offset="0.32" stop-color="#e9ce00"/>
      <stop offset="0.7" stop-color="#dda400"/>
      <stop offset="1" stop-color="#d48d00"/>
    </linearGradient>
    <linearGradient id="e" x1="49.5" y1="89.68" x2="49.5" y2="57.05" gradientUnits="userSpaceOnUse">
      <stop offset="0" stop-color="#f8ff94"/>
      <stop offset="0.5" stop-color="#e9c300"/>
      <stop offset="1" stop-color="#d48000"/>
    </linearGradient>
  </defs>
  <g>
    <circle class="a" cx="50.93" cy="50.48" r="48.26" transform="translate(-9.72 88.74) rotate(-76.99)"/>
    <g>
      <g>
        <circle class="b" cx="50.83" cy="50.48" r="48.26" transform="translate(-20.81 50.73) rotate(-45)"/>
        <path class="c" d="M50.71,0a50.48,50.48,0,1,0,50.48,50.48A50.48,50.48,0,0,0,50.71,0Zm0,98.74A48.26,48.26,0,1,1,99,50.48,48.26,48.26,0,0,1,50.71,98.74Z"/>
        <path class="c" d="M50.71,11.28a39.2,39.2,0,1,0,39.2,39.2A39.2,39.2,0,0,0,50.71,11.28Zm0,74.88A35.68,35.68,0,1,1,86.4,50.48,35.68,35.68,0,0,1,50.71,86.16Z"/>
        <path class="d" d="M84.27,56a33.26,33.26,0,0,0,.51-5.86,34,34,0,1,0-67.27,6.57C52.34,61,74.74,57.91,84.27,56Z"/>
        <path class="e" d="M10.61,55c-.14-1.42-.44-3.54-.42-5C10.61,28.06,27.66,9.73,51,9.89c20.2.14,39,14.84,40.68,39.38A38.39,38.39,0,0,1,91.32,55c2.64-.56,5.53-1.69,6.17-2.4,0-.77.05-1.54.05-2.32,0-25.8-21-45.76-46.76-45.76S4.11,24.44,4.11,50.24c0,.79,0,1.58.06,2.36C6.25,54.46,8.79,54.39,10.61,55Z"/>
        <path class="f" d="M6.33,31.15S17.22,5.29,40,3.4C19.08,6.81,6.33,31.15,6.33,31.15Z"/>
      </g>
      <g>
        <path class="g" d="M100.14,60.81c-19.8-2.61-41-1.28-62.42,2.94l10.33,13S80.94,75.51,81.41,75,100.14,60.81,100.14,60.81Z"/>
        <path class="h" d="M84.05,63.56q-21,5-36.65,0c-17.32-5.62-32.69-8-46.67-6C4.28,82,24.83,101,50.22,101c24.29,0,45.1-17.29,49.92-40.15A127.15,127.15,0,0,0,84.05,63.56Z"/>
        <path class="i" d="M83.05,63.56q-21,5-36.65,0C30.78,58.49,16.86,56.2,3.93,57.32a47.75,47.75,0,0,0,94,3.74A113,113,0,0,0,83.05,63.56Z"/>
        <path class="f" d="M53.71,89.68S78.4,89.74,87,63.75C76.31,88.62,53.71,89.68,53.71,89.68Z"/>
        <path class="j" d="M50.4,64.56c-12.51-4.06-24.23-6.33-35-6.5a35.68,35.68,0,0,0,67.23,7.45Q64.37,69,50.4,64.56Z"/>
        <path class="k" d="M84.05,63.56q-21,5-36.65,0c-12.81-4.16-24.79-6.43-35.82-6.51a39.2,39.2,0,0,0,75.85,5.76C86.31,63.05,85.18,63.29,84.05,63.56Z"/>
        <path class="f" d="M15,57.83s6,28.83,34.88,28.1c28.33-.7,32.48-22.64,32.86-22.18C82.35,63.21,77,84.06,49.86,84.3,22.16,84.55,15,57.83,15,57.83Z"/>
      </g>
    </g>
  </g>
</svg>
