<svg xmlns="http://www.w3.org/2000/svg" viewBox="0 0 110.08 96.24">
  <defs>
    <style>
      .a {
        fill: #8aafff;
      }

      .a, .f {
        opacity: 0.5;
      }

      .b, .c, .d {
        fill: #fff;
      }

      .b {
        opacity: 0.3;
      }

      .d {
        opacity: 0.15;
      }

      .e {
        fill: #388dff;
        opacity: 0.1;
      }

      .f {
        fill: #b8e6ff;
      }
    </style>
  </defs>
  <g>
    <path class="a" d="M49.88,10.28a7.6,7.6,0,0,0,10.24,0S84-11.33,102.78,13.41C130.94,51.8,67.52,91.05,67.52,91.05s-13.51,10.81-27.88,0S-17.24,47.25,7.79,12C12.06,4.88,31.4-9.91,49.88,10.28Z"/>
    <path class="b" d="M66.57,10c-3.86,9.78,6.48,7.46,6.48,7.46s15.74-6.26,23.63,7.64,0,34.48,0,34.48,20.51-21.18,4.8-42.2S68,8.16,66.57,10Z"/>
    <path class="c" d="M36.68,3.55c0,.78-2.44,1.41-5.45,1.41s-5.46-.63-5.46-1.41,2.44-1.42,5.46-1.42S36.68,2.76,36.68,3.55Z"/>
    <path class="c" d="M94.11,9.64C97.46,12.53,99,16.26,97.48,18s-5.41.77-8.75-2.12-4.86-6.63-3.37-8.35S90.76,6.75,94.11,9.64Z"/>
    <path class="c" d="M102.7,21.56c.46,1.6.07,3.11-.86,3.37s-2.06-.81-2.52-2.4-.06-3.11.87-3.37S102.25,20,102.7,21.56Z"/>
    <path class="b" d="M45.52,12A21.62,21.62,0,0,0,14,10.9C7.84,18.19,6.44,24.33,9.7,29.34c2.84,3.78,11.67,5.47,13.55,0S31.21,14.09,45.52,12Z"/>
    <path class="c" d="M35.06,8c0,1.45-3.06,2.63-6.83,2.63S21.39,9.47,21.39,8s3.06-2.63,6.84-2.63S35.06,6.57,35.06,8Z"/>
    <path class="d" d="M47.18,52.37C57.81,64.07,77,62.63,100.6,54.43a44.09,44.09,0,0,0,5.06-13.18c1.73-8.92-.31-17.42-6-25.23C94.19,8.85,87.77,5.21,80.57,5.21c-10.65,0-19.61,8-19.67,8a9.93,9.93,0,0,1-6.44,2.53,9.59,9.59,0,0,1-6.24-2.45l-.1-.09L48,13.11C42.36,6.92,36.2,3.78,29.71,3.78c-9,0-17,6.37-19.62,10.67l0,.07-.05.06c-6.86,9.67-8.78,20-5.78,30.7C16.52,41.33,30.1,41.39,47.18,52.37Z"/>
    <path class="e" d="M19.31,6.42A33.68,33.68,0,0,0,2.88,35.75C2.88,56.51,25,74.58,37.75,85c17,13.73,31.57-.11,31.57-.11L93,64.75S76.44,73.5,67,80.48,50.87,89.06,35.09,76.7,8,48.67,8,36.9A39.19,39.19,0,0,1,19.31,6.42Z"/>
    <path class="f" d="M49.61,11.73a7.3,7.3,0,0,0,9.84,0s23-20.78,41,3c27.08,36.92-33.91,74.65-33.91,74.65s-13,10.4-26.8,0-54.69-42.11-30.62-76C13.24,6.53,31.83-7.69,49.61,11.73Z"/>
  </g>
</svg>
