<svg xmlns="http://www.w3.org/2000/svg" xmlns:xlink="http://www.w3.org/1999/xlink" viewBox="0 0 100.96 100.96">
  <defs>
    <style>
      .a {
        fill: #76a8e5;
      }

      .a, .b, .e {
        opacity: 0.5;
      }

      .b {
        fill: #569eff;
      }

      .c, .d, .f {
        fill: #fff;
      }

      .c {
        opacity: 0.3;
      }

      .d {
        opacity: 0.2;
      }

      .e {
        fill: #b8e6ff;
      }

      .g {
        fill: url(#a);
      }

      .h {
        fill: url(#b);
      }

      .i {
        fill: url(#c);
      }

      .j {
        fill: url(#d);
      }

      .k {
        fill: url(#e);
      }
    </style>
    <linearGradient id="a" x1="50.66" y1="37.24" x2="96.85" y2="37.24" gradientUnits="userSpaceOnUse">
      <stop offset="0" stop-color="#aa6300"/>
      <stop offset="1" stop-color="#d48000"/>
    </linearGradient>
    <linearGradient id="b" x1="50.48" y1="29.15" x2="50.48" y2="100.96" gradientUnits="userSpaceOnUse">
      <stop offset="0" stop-color="#fffbbf"/>
      <stop offset="1" stop-color="#d47800"/>
    </linearGradient>
    <linearGradient id="c" x1="50.48" y1="29.15" x2="50.48" y2="98.74" gradientUnits="userSpaceOnUse">
      <stop offset="0" stop-color="#f8ff94"/>
      <stop offset="0.32" stop-color="#e9c300"/>
      <stop offset="0.69" stop-color="#ffd215"/>
      <stop offset="1" stop-color="#d4a000"/>
    </linearGradient>
    <linearGradient id="d" x1="50.48" y1="89.68" x2="50.48" y2="29.15" gradientUnits="userSpaceOnUse">
      <stop offset="0" stop-color="#f8ff94"/>
      <stop offset="0.5" stop-color="#e9c300"/>
      <stop offset="1" stop-color="#d48000"/>
    </linearGradient>
    <linearGradient id="e" x1="50.48" y1="29.15" x2="50.48" y2="86.16" gradientUnits="userSpaceOnUse">
      <stop offset="0" stop-color="#f8ff94"/>
      <stop offset="0.32" stop-color="#e9ce00"/>
      <stop offset="0.7" stop-color="#dda400"/>
      <stop offset="1" stop-color="#d48d00"/>
    </linearGradient>
  </defs>
  <g>
    <circle class="a" cx="50.48" cy="50.48" r="48.26" transform="translate(-9.26 89.56) rotate(-78.19)"/>
    <path class="b" d="M50.48,0A50.48,50.48,0,1,0,101,50.48,50.48,50.48,0,0,0,50.48,0Zm0,98.74A48.26,48.26,0,1,1,98.74,50.48,48.26,48.26,0,0,1,50.48,98.74Z"/>
    <path class="b" d="M50.48,11.28a39.2,39.2,0,1,0,39.2,39.2A39.2,39.2,0,0,0,50.48,11.28Zm0,74.88A35.68,35.68,0,1,1,86.16,50.48,35.67,35.67,0,0,1,50.48,86.16Z"/>
    <path class="c" d="M10,53.7a48.65,48.65,0,0,1-.41-5C10,26.79,27.05,8.47,50.4,8.63c20.2.14,39,14.84,40.68,39.38a39.89,39.89,0,0,1-.37,5.69c2.63-.56,5.53-1.69,6.16-2.4,0-.77.06-1.54.06-2.32,0-25.8-21-45.76-46.76-45.76S3.5,23.18,3.5,49c0,.79,0,1.58,0,2.36C5.63,53.2,8.18,53.13,10,53.7Z"/>
    <path class="d" d="M83.93,55.7a34,34,0,1,0-66.76.72C52,60.72,74.39,57.66,83.93,55.7Z"/>
    <circle class="e" cx="50.48" cy="50.48" r="48.26" transform="translate(-10.07 88.3) rotate(-76.99)"/>
    <path class="f" d="M15.12,57.64s6,28.1,34.89,28.1S85.3,57.64,85.3,57.64,77.7,84.72,50,84.11,15.12,57.64,15.12,57.64Z"/>
    <path class="f" d="M6,31.15S16.88,5.29,39.65,3.4C18.73,6.81,6,31.15,6,31.15Z"/>
    <path class="g" d="M96.85,30.52C82,27,66.48,29.47,50.66,35.09l14,10.5,28.22-1.33Z"/>
    <path class="h" d="M57.63,32.59c-10.17-4.55-21.77-4.09-34-1.46C15.06,33.9,8.79,33.4,4,30.84a50.49,50.49,0,1,0,92.89-.32C86.54,39.09,73.56,40,57.63,32.59Z"/>
    <path class="i" d="M57.63,32.59c-10.17-4.55-21.77-4.09-34-1.46-7.42,2.4-13.11,2.34-17.64.62A48.26,48.26,0,1,0,95,31.93C85,39.17,72.64,39.6,57.63,32.59Z"/>
    <path class="j" d="M57.63,32.59c-10.17-4.55-21.77-4.09-34-1.46a37.33,37.33,0,0,1-8.18,1.75A39.2,39.2,0,1,0,87,36.11C78.57,38.9,68.83,37.82,57.63,32.59Z"/>
    <path class="k" d="M58.63,32.59c-10.17-4.55-21.77-4.09-34-1.46a43.94,43.94,0,0,1-4.92,1.29A35.67,35.67,0,1,0,83.6,37.19C76.24,38.41,67.94,36.94,58.63,32.59Z"/>
    <path class="f" d="M15.35,57.83s6,28.1,34.89,28.1,35.29-28.1,35.29-28.1S77.93,84.91,50.24,84.3,15.35,57.83,15.35,57.83Z"/>
    <path class="f" d="M54.09,89.68s24.68.06,33.29-25.93C76.69,88.62,54.09,89.68,54.09,89.68Z"/>
  </g>
</svg>
