<svg xmlns="http://www.w3.org/2000/svg" viewBox="0 0 100.96 100.96">
  <defs>
    <style>
      .a {
        fill: #76a8e5;
      }

      .a, .b, .f {
        opacity: 0.5;
      }

      .b {
        fill: #569eff;
      }

      .c, .d, .e {
        fill: #fff;
      }

      .d {
        opacity: 0.2;
      }

      .e {
        opacity: 0.3;
      }

      .f {
        fill: #b8e6ff;
      }
    </style>
  </defs>
  <g>
    <circle class="a" cx="50.71" cy="50.48" r="48.26" transform="translate(-9.93 88.46) rotate(-76.93)"/>
    <path class="b" d="M50.71,0a50.48,50.48,0,1,0,50.48,50.48A50.48,50.48,0,0,0,50.71,0Zm0,98.74A48.26,48.26,0,1,1,99,50.48,48.26,48.26,0,0,1,50.71,98.74Z"/>
    <path class="b" d="M50.71,11.28a39.2,39.2,0,1,0,39.2,39.2A39.2,39.2,0,0,0,50.71,11.28Zm0,74.88A35.68,35.68,0,1,1,86.4,50.48,35.68,35.68,0,0,1,50.71,86.16Z"/>
    <path class="c" d="M15.36,57.64s6,28.1,34.88,28.1,35.29-28.1,35.29-28.1-7.6,27.08-35.29,26.47S15.36,57.64,15.36,57.64Z"/>
    <path class="d" d="M84.16,56a34,34,0,1,0-67.4-5.86,33.88,33.88,0,0,0,.64,6.57C52.22,61,74.63,57.91,84.16,56Z"/>
    <path class="e" d="M10.5,55a46,46,0,0,1-.42-5C10.5,28.06,27.55,9.73,50.9,9.89c20.2.14,39,14.84,40.68,39.38A38.39,38.39,0,0,1,91.21,55c2.64-.56,5.53-1.69,6.16-2.4,0-.77.06-1.54.06-2.32,0-25.8-21-45.76-46.76-45.76S4,24.44,4,50.24c0,.79,0,1.58.06,2.36C6.14,54.46,8.68,54.39,10.5,55Z"/>
    <path class="c" d="M6.22,31.15S17.11,5.29,39.88,3.4C19,6.81,6.22,31.15,6.22,31.15Z"/>
    <circle class="f" cx="50.71" cy="50.48" r="48.26" transform="translate(-9.93 88.46) rotate(-76.93)"/>
  </g>
</svg>
