<svg xmlns="http://www.w3.org/2000/svg" xmlns:xlink="http://www.w3.org/1999/xlink" viewBox="0 0 112.93 113.47">
  <defs>
    <style>
      .a {
        fill: #b0cfff;
      }

      .a, .b, .c {
        opacity: 0.5;
      }

      .b {
        fill: #b8e6ff;
      }

      .c {
        fill: #cef2ff;
      }

      .d, .e {
        fill: #fff;
      }

      .e, .j {
        opacity: 0.3;
      }

      .f {
        fill: url(#a);
      }

      .g {
        fill: url(#b);
      }

      .h, .j {
        fill: #fff688;
      }

      .i {
        fill: url(#c);
      }

      .k {
        opacity: 0.2;
      }
    </style>
    <linearGradient id="a" x1="20.2" y1="53.21" x2="105.23" y2="53.21" gradientUnits="userSpaceOnUse">
      <stop offset="0" stop-color="#ffb900"/>
      <stop offset="1" stop-color="#ffe300"/>
    </linearGradient>
    <linearGradient id="b" x1="56.8" y1="33.59" x2="56.8" y2="113.33" gradientUnits="userSpaceOnUse">
      <stop offset="0" stop-color="#f8ff94"/>
      <stop offset="0.23" stop-color="#e9c200"/>
      <stop offset="0.61" stop-color="#dd8e00"/>
      <stop offset="1" stop-color="#aa6300"/>
    </linearGradient>
    <linearGradient id="c" x1="56.66" y1="35.84" x2="56.66" y2="106.77" gradientUnits="userSpaceOnUse">
      <stop offset="0" stop-color="#f8ff94"/>
      <stop offset="0.32" stop-color="#ffe000"/>
      <stop offset="0.7" stop-color="#ffa400"/>
      <stop offset="1" stop-color="#d4a900"/>
    </linearGradient>
  </defs>
  <g>
    <path class="a" d="M35.07,28.29s19.27-63.72,44.2,0C145.56,29.83,94.68,71.2,94.68,71.2s20.82,70.15-36.48,29c-57.79,38.54-39.83-28-39.83-28C-30.19,28.55,35.07,28.29,35.07,28.29Z"/>
    <path class="b" d="M36.25,29.82s18.23-60.27,41.8,0c62.71,1.46,14.59,40.59,14.59,40.59s19.68,66.34-34.51,27.46C3.46,134.32,20.46,71.38,20.46,71.38-25.47,30.07,36.25,29.82,36.25,29.82Z"/>
    <path class="c" d="M36.74,32.13s17.8-55.93,40.81,0c61.21,1.35,14.24,37.65,14.24,37.65S111,131.34,58.1,95.26C4.73,129.09,21.32,70.69,21.32,70.69-23.52,32.35,36.74,32.13,36.74,32.13Z"/>
    <path class="d" d="M12.12,34.6s9.55-5,24.13-4.78c5.52-18.39,13.57-24,13.57-24s-7.73,6.31-13.21,25.27C24.68,30.76,12.12,34.6,12.12,34.6Z"/>
    <path class="e" d="M58.07,95.26s-23.65,16.4-33.8,8.27C35.78,108,58.07,93.1,58.07,93.1Z"/>
    <path class="d" d="M71.2,18.38c1.45,3.74.5,7.6-2.13,8.61s-5.92-1.19-7.37-4.93-.5-7.59,2.13-8.61S69.75,14.64,71.2,18.38Z"/>
    <path class="d" d="M76.33,31.34a2.84,2.84,0,1,1-2.84-2.84A2.84,2.84,0,0,1,76.33,31.34Z"/>
    <g>
      <path class="f" d="M105.23,38.59c-11.51,5.59-23.18,9.82-35.53,8.24-20.16-2.14-36.87-.55-49.5,5.45l25,15.55s37-10,38.5-10,16.93-9.64,16.93-9.64Z"/>
      <path class="g" d="M106.23,33.59a34.16,34.16,0,0,0-11,5.38C76.73,52.08,57.05,52.93,37,49.58c-15.62-3-26.85-2.71-36.47-1.22,1.21,6,6.34,13.84,17.68,24,0,0-18,66.55,39.82,28,57.3,41.11,36.49-29,36.49-29S126.89,45,106.23,33.59Z"/>
      <path class="h" d="M103.13,34.62A35.83,35.83,0,0,0,95.21,39C76.73,52.08,57.05,52.93,37,49.58,22.87,46.88,12.36,46.85,3.38,48,4.19,53.76,9,61.41,20.24,71.55c0,0-17,63,37.67,26.49,54.2,38.89,34.51-27.46,34.51-27.46S123.5,45.3,103.13,34.62Z"/>
      <path class="i" d="M100.37,35.84A37.57,37.57,0,0,0,95.21,39C76.73,52.08,57.05,52.93,37,49.58,23.47,47,13.26,46.86,4.53,47.82c.26,5.5,4.78,13,16.58,23,0,0-16.59,58.4,36.77,24.58C110.79,131.52,91.57,70,91.57,70S123.52,45.26,100.37,35.84Z"/>
      <path class="j" d="M105.35,38.72c-2,2.32-3.67,4.35-4.72,5.75-4.46,6-14.65,27.9-21.91,39.75C75.33,89.76,70.11,95.29,65,100c44,25.79,26.57-30,26.57-30S118,49.5,105.35,38.72Z"/>
      <path class="e" d="M57.86,95.44s-23.65,16.39-33.81,8.26c11.51,4.48,33.81-10.43,33.81-10.43Z"/>
      <path class="j" d="M43,50.57,20.35,74c-1.18,5.36-3,16.45-.19,24.06,11-5.4,28.58-14.49,36.5-21.08C66,69.15,79.54,55,88.47,43.19,74,51.25,58.41,52.31,43,50.57Z"/>
      <path class="j" d="M4.54,47.82A16.64,16.64,0,0,0,6.87,55c2.77-2.38,5.85-5,9.11-7.74A91.56,91.56,0,0,0,4.54,47.82Z"/>
    </g>
    <g class="k">
      <path class="d" d="M62.86,9.4C50.22.64,40.8,21.37,37.78,29.24,46.65,22,55.49,15,62.86,9.4Z"/>
      <path class="d" d="M94.43,33.84a90.16,90.16,0,0,0-16.88-1.71c-.78-1.91-1.56-3.67-2.33-5.32-10,5.35-20.4,11.63-25.71,17.11C43,50.66,30.63,63.4,20.56,73.81c-1.17,5.36-3,16.45-.19,24.06,11-5.4,28.58-14.5,36.5-21.08C68.82,66.85,86.58,46.22,94.43,33.84Z"/>
      <path class="d" d="M105.56,38.55c-2,2.32-3.66,4.35-4.71,5.75-4.47,6-14.65,27.9-21.91,39.75-3.39,5.53-8.62,11.07-13.73,15.74,44,25.79,26.58-30,26.58-30S118.26,49.33,105.56,38.55Z"/>
      <path class="d" d="M34.14,32.22c-9,.47-37.73,3.51-27,22.64C14.58,48.43,24.26,40.31,34.14,32.22Z"/>
    </g>
  </g>
</svg>
