<svg xmlns="http://www.w3.org/2000/svg" viewBox="0 0 407.05 439.3"><defs><style>.cls-1{isolation:isolate;}.cls-2{fill:#1d1d1b;mix-blend-mode:multiply;}.cls-2,.cls-9{opacity:0.15;}.cls-3{fill:#fff;}.cls-4{fill:#e74c39;}.cls-5{fill:#8d008a;}.cls-6{fill:#af00af;}.cls-7{fill:#680168;}.cls-8{fill:#3a3a3a;}</style></defs><g class="cls-1"><g id="Layer_1" data-name="Layer 1"><path class="cls-2" d="M385.9,53.18a40.29,40.29,0,0,0-12-4.19V22.23a10.32,10.32,0,1,0-20.63,0V48.3H275.15V22.23a10.32,10.32,0,1,0-20.63,0V48.3H176.39V22.23a10.32,10.32,0,1,0-20.64,0V48.3H77.63V22.23a10.32,10.32,0,1,0-20.64,0V48.3h-.54A40.52,40.52,0,0,0,16,88.71v6.51h0V411.93A27.37,27.37,0,0,0,43.41,439.3H379.67a27.37,27.37,0,0,0,27.38-27.37V95.22h0V88.71A40.4,40.4,0,0,0,385.9,53.18Z"/><path class="cls-3" d="M40.41,36.39H350.6A40.4,40.4,0,0,1,391,76.79V400a27.37,27.37,0,0,1-27.37,27.37H27.37A27.37,27.37,0,0,1,0,400V76.79a40.4,40.4,0,0,1,40.4-40.4Z"/><path class="cls-4" d="M350.6,36.39H40.41A40.41,40.41,0,0,0,0,76.79v64H391v-64A40.4,40.4,0,0,0,350.6,36.39Z"/><path class="cls-5" d="M350.6,42.9H40.41A40.41,40.41,0,0,0,0,83.31v64H391v-64A40.41,40.41,0,0,0,350.6,42.9Z"/><path class="cls-6" d="M350.6,36.39H40.41A40.41,40.41,0,0,0,0,76.79v6.52A40.41,40.41,0,0,1,40.41,42.9H350.6A40.41,40.41,0,0,1,391,83.31V76.79A40.4,40.4,0,0,0,350.6,36.39Z"/><circle class="cls-7" cx="51.27" cy="56.81" r="13.9"/><circle class="cls-7" cx="150.03" cy="56.81" r="13.9"/><circle class="cls-7" cx="248.79" cy="56.81" r="13.9"/><circle class="cls-7" cx="347.56" cy="56.81" r="13.9"/><path class="cls-8" d="M51.27,65A10.32,10.32,0,0,1,41,54.63V10.32a10.32,10.32,0,0,1,20.64,0V54.63A10.33,10.33,0,0,1,51.27,65Z"/><path class="cls-8" d="M150,65a10.32,10.32,0,0,1-10.32-10.32V10.32a10.32,10.32,0,1,1,20.64,0V54.63A10.33,10.33,0,0,1,150,65Z"/><path class="cls-8" d="M248.8,65a10.32,10.32,0,0,1-10.32-10.32V10.32a10.32,10.32,0,1,1,20.63,0V54.63A10.32,10.32,0,0,1,248.8,65Z"/><path class="cls-8" d="M347.56,65a10.32,10.32,0,0,1-10.32-10.32V10.32a10.32,10.32,0,1,1,20.63,0V54.63A10.32,10.32,0,0,1,347.56,65Z"/><g class="cls-9"><path class="cls-3" d="M46.92,52a1.73,1.73,0,0,1-1.72-1.72V12.92a1.72,1.72,0,1,1,3.44,0V50.29A1.73,1.73,0,0,1,46.92,52Z"/></g><g class="cls-9"><path class="cls-3" d="M145.69,52A1.73,1.73,0,0,1,144,50.29V12.92a1.72,1.72,0,0,1,3.44,0V50.29A1.73,1.73,0,0,1,145.69,52Z"/></g><g class="cls-9"><path class="cls-3" d="M244.45,52a1.73,1.73,0,0,1-1.72-1.72V12.92a1.72,1.72,0,0,1,3.44,0V50.29A1.73,1.73,0,0,1,244.45,52Z"/></g><g class="cls-9"><path class="cls-3" d="M343.22,52a1.73,1.73,0,0,1-1.72-1.72V12.92a1.72,1.72,0,1,1,3.44,0V50.29A1.73,1.73,0,0,1,343.22,52Z"/></g></g></g></svg>