<svg xmlns="http://www.w3.org/2000/svg" viewBox="0 0 1221.18 1221.18">
  <defs>
    <style>
      .a {
        opacity: 0.1;
      }

      .b {
        fill: #fff;
      }

      .c {
        fill: none;
      }
    </style>
  </defs>
  <g class="a">
    <path class="b" d="M837.75,899.36c-179.64-123-271.19-225.58-312.55-316.6-41.86-91.15-33.53-170.69-25.2-250.24,2.91,159.85,8.95,320,423,521C894.14,869.41,865.65,884.65,837.75,899.36Z" transform="translate(110.59 278.07)"/>
    <path class="b" d="M992.57,792C550.15,648.49,524.88,490.51,500,332.52c43.16,153.81,94.35,306.31,536.94,394.78Q1014.46,759,992.57,792Z" transform="translate(110.59 278.07)"/>
    <path class="b" d="M1063.88,658.22c-207.34-19.63-336.72-63.1-417.3-121.48C565.19,478.61,532.6,405.56,500,332.52c41.69,68.28,83.36,136.56,170.62,184.27,85.85,48.34,217.29,76.12,406.21,77.94A381.58,381.58,0,0,0,1063.88,658.22Z" transform="translate(110.59 278.07)"/>
    <path class="b" d="M1085,528.66c-169.88,12.53-301.65,1.25-391.86-36C601.05,456.59,550.53,394.55,500,332.52c58,55.08,116.07,110.17,211.53,134.63,93.43,26.11,224.31,21.6,381.21-4.22C1087.37,486.24,1084.63,507.78,1085,528.66Z" transform="translate(110.59 278.07)"/>
    <path class="b" d="M1102.42,384.94c-150.05,44.49-278.89,66.24-374.83,52.72C629.8,426.12,564.91,379.31,500,332.52c70.31,38.19,140.6,76.41,239.28,75.13,97.25.72,222.88-38.06,370.83-107.88C1106,331.05,1103.08,359.22,1102.42,384.94Z" transform="translate(110.59 278.07)"/>
    <path class="b" d="M1110.59,198.78c-145.63,104.76-266,162-363.09,175.54-98,15.19-172.74-13.31-247.5-41.8,77.74,18.84,155.48,37.69,251.08,9.29,95.18-27.29,208.23-101.83,346.83-244C1102.5,133.67,1106.45,167.34,1110.59,198.78Z" transform="translate(110.59 278.07)"/>
    <path class="b" d="M1066.84-5.23C943.88,174.41,841.26,266,750.24,307.32c-91.15,41.86-170.69,33.53-250.24,25.2,159.84-2.91,320-8.95,521-423C1036.89-61.62,1052.13-33.13,1066.84-5.23Z" transform="translate(110.59 278.07)"/>
    <path class="b" d="M959.43-160C816,282.37,658,307.64,500,332.52c153.81-43.16,306.31-94.35,394.78-536.94Q926.5-181.93,959.43-160Z" transform="translate(110.59 278.07)"/>
    <path class="b" d="M825.7-231.36C806.07-24,762.6,105.36,704.22,185.94,646.09,267.33,573,299.92,500,332.52c68.28-41.69,136.56-83.36,184.27-170.62,48.34-85.85,76.11-217.29,77.94-406.21A381.58,381.58,0,0,0,825.7-231.36Z" transform="translate(110.59 278.07)"/>
    <path class="b" d="M696.14-252.46c12.53,169.88,1.25,301.65-36,391.86C624.07,231.47,562,282,500,332.52c55.08-58,110.17-116.07,134.63-211.53,26.11-93.43,21.6-224.31-4.22-381.21C653.72-254.85,675.26-252.11,696.14-252.46Z" transform="translate(110.59 278.07)"/>
    <path class="b" d="M552.42-269.9c44.49,150,66.24,278.89,52.72,374.83C593.6,202.72,546.79,267.61,500,332.52c38.19-70.31,76.41-140.6,75.13-239.28C575.85-4,537.07-129.64,467.25-277.59,498.53-273.47,526.7-270.56,552.42-269.9Z" transform="translate(110.59 278.07)"/>
    <path class="b" d="M366.26-278.07C471-132.44,528.26-12.09,541.8,85,557,183,528.49,257.76,500,332.52c18.84-77.74,37.69-155.48,9.29-251.08C482-13.74,407.46-126.79,265.31-265.39,301.15-270,334.82-273.93,366.26-278.07Z" transform="translate(110.59 278.07)"/>
    <path class="b" d="M162.25-234.32C341.89-111.36,433.44-8.74,474.8,82.28,516.66,173.43,508.33,253,500,332.52c-2.91-159.84-8.95-320-423-520.95C105.86-204.37,134.35-219.61,162.25-234.32Z" transform="translate(110.59 278.07)"/>
    <path class="b" d="M7.43-126.91C449.85,16.55,475.12,174.53,500,332.52,456.84,178.71,405.65,26.21-36.94-62.26Q-14.45-94,7.43-126.91Z" transform="translate(110.59 278.07)"/>
    <path class="b" d="M-63.88,6.82c207.34,19.63,336.72,63.1,417.3,121.48,81.39,58.13,114,131.18,146.58,204.22C458.31,264.24,416.64,196,329.38,148.25,243.53,99.91,112.09,72.14-76.83,70.31A381.58,381.58,0,0,0-63.88,6.82Z" transform="translate(110.59 278.07)"/>
    <path class="b" d="M-85,136.38c169.88-12.53,301.65-1.25,391.86,36C399,208.45,449.47,270.49,500,332.52c-58-55.08-116.07-110.17-211.53-134.63C195,171.78,64.16,176.29-92.74,202.11-87.37,178.8-84.63,157.26-85,136.38Z" transform="translate(110.59 278.07)"/>
    <path class="b" d="M-102.42,280.1c150.05-44.49,278.89-66.24,374.83-52.72C370.2,238.92,435.09,285.73,500,332.52c-70.31-38.19-140.6-76.41-239.28-75.13-97.25-.72-222.88,38.06-370.83,107.88C-106,334-103.08,305.82-102.42,280.1Z" transform="translate(110.59 278.07)"/>
    <path class="b" d="M-110.59,466.26C35,361.5,155.39,304.26,252.5,290.72c98-15.19,172.74,13.31,247.5,41.8-77.74-18.84-155.48-37.69-251.08-9.29-95.18,27.29-208.23,101.83-346.83,244C-102.5,531.37-106.45,497.7-110.59,466.26Z" transform="translate(110.59 278.07)"/>
    <path class="b" d="M-66.84,670.27c123-179.64,225.58-271.19,316.6-312.55,91.15-41.86,170.69-33.53,250.24-25.2-159.85,2.91-320,9-520.95,423C-36.89,726.66-52.13,698.17-66.84,670.27Z" transform="translate(110.59 278.07)"/>
    <path class="b" d="M40.57,825.09C184,382.67,342,357.4,500,332.52c-153.81,43.16-306.31,94.35-394.78,536.94Q73.49,847,40.57,825.09Z" transform="translate(110.59 278.07)"/>
    <path class="b" d="M174.3,896.4c19.63-207.34,63.1-336.72,121.48-417.3C353.91,397.71,427,365.12,500,332.52c-68.28,41.69-136.56,83.36-184.27,170.62C267.39,589,239.61,720.43,237.79,909.35A381.58,381.58,0,0,0,174.3,896.4Z" transform="translate(110.59 278.07)"/>
    <path class="b" d="M303.86,917.5c-12.53-169.88-1.25-301.65,36-391.86C375.93,433.57,438,383.05,500,332.52c-55.08,58-110.17,116.07-134.63,211.53-26.11,93.43-21.6,224.31,4.22,381.21C346.28,919.89,324.74,917.15,303.86,917.5Z" transform="translate(110.59 278.07)"/>
    <path class="b" d="M447.58,934.94c-44.49-150.05-66.24-278.89-52.72-374.83C406.4,462.32,453.21,397.43,500,332.52c-38.19,70.31-76.41,140.6-75.13,239.28-.72,97.25,38.06,222.88,107.88,370.83C501.47,938.51,473.3,935.6,447.58,934.94Z" transform="translate(110.59 278.07)"/>
    <path class="b" d="M633.74,943.11C529,797.48,471.74,677.13,458.2,580,443,482,471.51,407.28,500,332.52,481.16,410.26,462.31,488,490.71,583.6c27.29,95.18,101.83,208.23,244,346.83C698.85,935,665.18,939,633.74,943.11Z" transform="translate(110.59 278.07)"/>
  </g>
  <rect class="c" x="110.59" y="278.09" width="1000" height="665"/>
</svg>
