<svg id="Calque_1" data-name="Calque 1" xmlns="http://www.w3.org/2000/svg" viewBox="0 0 94.56 94.56"><defs><style>.cls-1{fill:#fff;}</style></defs><path class="cls-1" d="M47.28,94.56A47.28,47.28,0,1,1,94.56,47.28,47.33,47.33,0,0,1,47.28,94.56Zm0-83.58a36.3,36.3,0,1,0,36.3,36.3A36.34,36.34,0,0,0,47.28,11Z" transform="translate(0 0)"/><path class="cls-1" d="M57.87,47.3H50.94V72H40.68V47.3H35.79V38.57h4.89V32.92c0-4,1.91-10.36,10.36-10.36l7.6,0v8.46H53.12a2.1,2.1,0,0,0-2.18,2.38v5.14h7.83Zm0,0" transform="translate(0 0)"/></svg>