<svg id="Calque_1" data-name="Calque 1" xmlns="http://www.w3.org/2000/svg" viewBox="0 0 94.56 94.56"><defs><style>.cls-1{fill:#fff;}</style></defs><path class="cls-1" d="M47.28,94.56A47.28,47.28,0,1,1,94.56,47.28,47.33,47.33,0,0,1,47.28,94.56Zm0-83.58a36.3,36.3,0,1,0,36.3,36.3A36.34,36.34,0,0,0,47.28,11Z" transform="translate(0 0)"/><path class="cls-1" d="M71.3,50.62V67.25H61.65V51.73c0-3.9-1.39-6.56-4.88-6.56a5.28,5.28,0,0,0-5,3.53,6.68,6.68,0,0,0-.32,2.35v16.2H41.86s.13-26.28,0-29H51.5v4.11l-.06.1h.06v-.1a9.58,9.58,0,0,1,8.69-4.79c6.35,0,11.11,4.15,11.11,13.06ZM31.77,24.26c-3.3,0-5.46,2.17-5.46,5a5,5,0,0,0,5.33,5h.07c3.36,0,5.45-2.23,5.45-5a5,5,0,0,0-5.39-5Zm-4.89,43h9.65v-29H26.88Zm0,0" transform="translate(0 0)"/></svg>