<svg xmlns="http://www.w3.org/2000/svg" xmlns:xlink="http://www.w3.org/1999/xlink" viewBox="0 0 339.97 339.97">
  <defs>
    <style>
      .a {
        fill: #2d254f;
      }

      .b {
        fill: #6661a8;
      }

      .c {
        fill: url(#a);
      }

      .d {
        fill: #bcbec0;
      }

      .e {
        fill: #fffafc;
      }

      .f {
        fill: #a49bc6;
      }

      .g {
        fill: #849899;
      }

      .h {
        fill: #a498a4;
      }

      .i {
        fill: url(#b);
      }

      .j {
        fill: #306f37;
      }

      .k {
        fill: #fff;
      }
    </style>
    <radialGradient id="a" cx="-67.92" cy="-64.33" r="0.15" gradientTransform="translate(55760.45 52821.73) scale(818.5)" gradientUnits="userSpaceOnUse">
      <stop offset="0" stop-color="#938eae"/>
      <stop offset="0.23" stop-color="#908bac"/>
      <stop offset="0.62" stop-color="#645e89"/>
      <stop offset="1" stop-color="#47416a"/>
    </radialGradient>
    <radialGradient id="b" cx="-67.88" cy="-64.33" r="0.15" gradientTransform="translate(62679.98 59412.94) scale(920.75)" gradientUnits="userSpaceOnUse">
      <stop offset="0" stop-color="#fff"/>
      <stop offset="0.12" stop-color="#fff"/>
      <stop offset="0.29" stop-color="#89c651"/>
      <stop offset="0.42" stop-color="#2d6b3b"/>
      <stop offset="0.6" stop-color="#1b3a25"/>
      <stop offset="1" stop-color="#253426"/>
    </radialGradient>
  </defs>
  <g>
    <path class="a" d="M181.33,14.29c93.54,0,169.84,76.3,169.84,169.85S274.87,354,181.33,354,11.48,277.68,11.48,184.14,87.78,14.29,181.33,14.29Z" transform="translate(-11.34 -14.15)"/>
    <circle class="a" cx="181.33" cy="184.14" r="169.06" transform="translate(-40.82 319.47) rotate(-80.78)"/>
    <path class="b" d="M181.33,64.64c65.81,0,119.5,53.68,119.5,119.5s-53.69,119.5-119.5,119.5S61.83,250,61.83,184.14,115.51,64.64,181.33,64.64Zm0-9.5c71,0,129,58,129,129s-57.95,129-129,129-129-57.95-129-129S110.28,55.14,181.33,55.14Z" transform="translate(-11.34 -14.15)"/>
    <circle class="c" cx="169.99" cy="169.98" r="119.5"/>
    <path class="d" d="M50.52,93.86l11.19,10.89-2.08,3.61-9.32-2.58,6.93,6.71-2.09,3.62-15-4.25,2-3.42,9.82,3.27-7.51-7.27,1.88-3.27,10,3-7.7-7,1.92-3.33ZM77,85.77l-2.49,2.86-5.06-4.39L66,88.14l5.06,4.4-2.5,2.87L57.19,85.48l2.49-2.86,4.18,3.62,3.39-3.89-4.18-3.64,2.5-2.86ZM88.88,64.7a8.11,8.11,0,0,1,2.21,5.68,7.9,7.9,0,0,1-8.25,6.9,9.47,9.47,0,0,1-7.4-8.82,6.92,6.92,0,0,1,2.76-5.08,7,7,0,0,1,5.47-1.84,8.13,8.13,0,0,1,5.21,3.16Zm-3,2.52a8,8,0,0,0-1.69-1.59,4.8,4.8,0,0,0-1.58-.71,2.81,2.81,0,0,0-1.41,0,3,3,0,0,0-1.15.61,3.2,3.2,0,0,0-.82,1A3.12,3.12,0,0,0,79,68a4.78,4.78,0,0,0,.43,1.69,9.72,9.72,0,0,0,3,3.56,4.65,4.65,0,0,0,1.56.7,2.87,2.87,0,0,0,1.43,0,3.2,3.2,0,0,0,1.15-.62,3.15,3.15,0,0,0,.81-1.06,2.93,2.93,0,0,0,.26-1.39,5.06,5.06,0,0,0-.41-1.66A8.28,8.28,0,0,0,85.87,67.22ZM121.05,36.7l3.45,15.22-3.71,1.89-6.41-7.23,2.16,9.4-3.72,1.9L102.54,46.14l3.51-1.79,6.46,8.08-2.34-10.18,3.36-1.72,6.75,8-2.65-10,3.42-1.75Zm12.5,11.42,1-15.94,4-1.07,8.86,13.29-3.78,1-1.72-2.74-4.59,1.23-.11,3.24-3.68,1Zm6.87-7.88-2.78-4.42-.2,5.22Zm27,.68-3.63.45-7.07-9.76L158,42.08l-3.45.42-1.84-15,4.63-.57,5.85,8-1.06-8.61,3.45-.42Zm11.67-.8-.21-12.25-4.47.08-.05-2.88,12.73-.23,0,2.88-4.47.08L182.91,40Zm20.23,1.31a12.17,12.17,0,0,1-3-.7A15,15,0,0,1,194,39.61l.43-3.57.34,0a8.7,8.7,0,0,0,2.31,1.78,7.79,7.79,0,0,0,2.58.84c.22,0,.5,0,.86,0a2.71,2.71,0,0,0,.88-.12,1.74,1.74,0,0,0,.72-.39,1.21,1.21,0,0,0,.38-.78,1.16,1.16,0,0,0-.33-1,3,3,0,0,0-1-.64c-.5-.2-1-.39-1.6-.59a12.53,12.53,0,0,1-1.57-.64,5.08,5.08,0,0,1-2.3-2,4.3,4.3,0,0,1-.43-2.69,4.08,4.08,0,0,1,2.21-3.2,7.41,7.41,0,0,1,4.62-.76,13.35,13.35,0,0,1,2.63.6,12.81,12.81,0,0,1,2.29,1L206.64,31l-.33,0a7.3,7.3,0,0,0-1.9-1.46,6.6,6.6,0,0,0-2.41-.8,5.71,5.71,0,0,0-.9,0,3.66,3.66,0,0,0-.86.18,1.76,1.76,0,0,0-.67.4,1.11,1.11,0,0,0-.34.68,1.1,1.1,0,0,0,.3,1,4,4,0,0,0,1.5.8l1.42.52a13,13,0,0,1,1.44.62A5.16,5.16,0,0,1,206,34.67a4,4,0,0,1,.46,2.61,4.37,4.37,0,0,1-2.21,3.38,7.71,7.71,0,0,1-4.94.77Zm28.84,6.18L232,36l-4.26-1.38.89-2.75,12.12,3.94-.89,2.74-4.25-1.38L231.8,48.79l-3.62-1.18Zm30.14,5.09A8.13,8.13,0,0,1,254,57a7,7,0,0,1-5.74-.57,6.92,6.92,0,0,1-3.82-4.34,8.11,8.11,0,0,1,.87-6,8.19,8.19,0,0,1,4.36-4.26,7.89,7.89,0,0,1,9.58,4.88,8.17,8.17,0,0,1-.88,6Zm-3.49-1.79a8.15,8.15,0,0,0,.79-2.17,4.7,4.7,0,0,0,0-1.74,2.85,2.85,0,0,0-.58-1.29,3.2,3.2,0,0,0-2.26-1.17,3.11,3.11,0,0,0-1.38.29,4.59,4.59,0,0,0-1.38,1.06,8,8,0,0,0-1.31,1.94A7.34,7.34,0,0,0,248,50a4.53,4.53,0,0,0,0,1.72,2.87,2.87,0,0,0,.58,1.3,3.21,3.21,0,0,0,1,.82,3,3,0,0,0,1.29.33,2.72,2.72,0,0,0,1.37-.31,4.7,4.7,0,0,0,1.37-1,8.13,8.13,0,0,0,1.28-1.93Zm29.06,24.27a4.41,4.41,0,0,1-1.6,1.25,4.12,4.12,0,0,1-1.79.35,5.54,5.54,0,0,1-2.05-.48,9.82,9.82,0,0,1-2.17-1.45L271.64,71l9.72-11.59,4.09,3.44a18.06,18.06,0,0,1,1.85,1.72,4.68,4.68,0,0,1,.89,1.44,2.81,2.81,0,0,1,.18,1.68,3.41,3.41,0,0,1-.78,1.55,3.59,3.59,0,0,1-1.69,1.15,3.3,3.3,0,0,1-2,0l-.05.06a4.19,4.19,0,0,1,.95,2.36,3.4,3.4,0,0,1-.92,2.42Zm.27-7.88a1.73,1.73,0,0,0,.33-.7,1.1,1.1,0,0,0-.08-.8,2.48,2.48,0,0,0-.57-.71c-.38-.34-.77-.67-1.17-1l-.2-.16-2.06,2.45.37.31c.5.41.85.7,1.06.86a2.23,2.23,0,0,0,.76.36,1.27,1.27,0,0,0,.86,0,2.25,2.25,0,0,0,.7-.56Zm-3.22,5.32a1.82,1.82,0,0,0,.48-1,1.64,1.64,0,0,0-.27-1,2.74,2.74,0,0,0-.63-.73l-1.23-1-.53-.45-2.44,2.9.16.14c.75.63,1.28,1.07,1.58,1.3a3.15,3.15,0,0,0,1.07.53,1.49,1.49,0,0,0,1,0A2.17,2.17,0,0,0,280.94,72.62Zm5.61,11.62L298,74.32,304.67,82l-2.17,1.89-4.24-4.86-2,1.74,3.9,4.48L298,87.18l-3.9-4.48-2.88,2.5,4.23,4.87L293.26,92l-6.71-7.73Zm18.07,22.91L320.28,104l2.07,3.59-10.54,12-2-3.39,2.2-2.37-2.37-4.11-3.15.73-1.91-3.3Zm9.39,4.59,3.55-3.82-5.09,1.15Z" transform="translate(-11.34 -14.15)"/>
    <path class="e" d="M49.43,93.31l11.18,10.88-2.08,3.61-9.32-2.57,6.93,6.71-2.09,3.62-15-4.25,2-3.42,9.82,3.26-7.51-7.27,1.88-3.26,10,3-7.69-7,1.92-3.32Zm26.45-8.09-2.49,2.87-5.06-4.4-3.4,3.9L70,92l-2.5,2.87L56.09,84.93l2.49-2.86,4.18,3.63,3.39-3.9L62,78.17l2.49-2.87,11.42,9.92Zm11.9-21.07A8.12,8.12,0,0,1,90,69.84a7.89,7.89,0,0,1-8.25,6.89,8.16,8.16,0,0,1-5.19-3.15,8.18,8.18,0,0,1-2.21-5.67A7.9,7.9,0,0,1,82.57,61a8.17,8.17,0,0,1,5.21,3.16Zm-3,2.52a7.69,7.69,0,0,0-1.69-1.58,4.62,4.62,0,0,0-1.58-.72,2.81,2.81,0,0,0-1.41,0,3.23,3.23,0,0,0-2,1.62,3.13,3.13,0,0,0-.28,1.38,4.73,4.73,0,0,0,.43,1.69,8.22,8.22,0,0,0,1.27,2,8.11,8.11,0,0,0,1.7,1.59,4.5,4.5,0,0,0,1.57.7,2.83,2.83,0,0,0,1.42,0,3.11,3.11,0,0,0,2-1.68,2.77,2.77,0,0,0,.25-1.38,5.05,5.05,0,0,0-.41-1.67,8.07,8.07,0,0,0-1.28-1.93ZM120,36.16l3.45,15.21-3.71,1.89L113.28,46l2.16,9.4-3.72,1.9L101.44,45.59,105,43.8l6.46,8.08L109.07,41.7,112.43,40l6.75,7.95-2.65-10L120,36.16Zm12.5,11.41,1-15.93,4-1.08,8.85,13.28-3.78,1-1.72-2.74-4.58,1.23-.12,3.23-3.68,1Zm6.87-7.88-2.78-4.42-.2,5.22Zm27,.68-3.63.45-7.07-9.76,1.28,10.47-3.44.42-1.85-15,4.63-.57,5.85,8-1.06-8.6,3.45-.42Zm11.67-.8-.21-12.24-4.47.07-.05-2.88L186,24.3l0,2.88-4.47.08.21,12.24-3.8.07Zm20.23,1.32a12.29,12.29,0,0,1-3-.71,15.48,15.48,0,0,1-2.32-1.12l.43-3.57.35,0a8.41,8.41,0,0,0,2.3,1.78,7.79,7.79,0,0,0,2.58.84,6.85,6.85,0,0,0,.87,0,3.31,3.31,0,0,0,.87-.12,2,2,0,0,0,.73-.4,1.17,1.17,0,0,0,.37-.78,1.13,1.13,0,0,0-.33-1,3,3,0,0,0-1-.65c-.52-.21-1.06-.4-1.59-.58A12,12,0,0,1,197,34a5.1,5.1,0,0,1-2.31-1.95,4.34,4.34,0,0,1-.43-2.7,4.09,4.09,0,0,1,2.21-3.2,7.36,7.36,0,0,1,4.62-.75,13.35,13.35,0,0,1,2.63.6,11.28,11.28,0,0,1,2.29,1l-.42,3.42-.33,0a7.52,7.52,0,0,0-1.9-1.46,6.79,6.79,0,0,0-2.41-.8,5.67,5.67,0,0,0-.9,0,3.22,3.22,0,0,0-.86.18,1.65,1.65,0,0,0-.66.4,1.07,1.07,0,0,0-.35.68,1.1,1.1,0,0,0,.3,1,4,4,0,0,0,1.5.8l1.42.52a10.89,10.89,0,0,1,1.44.63,5.11,5.11,0,0,1,2.15,1.8,4.06,4.06,0,0,1,.45,2.61,4.37,4.37,0,0,1-2.21,3.38,7.76,7.76,0,0,1-4.94.78Zm28.84,6.17,3.79-11.64L226.61,34l.9-2.75,12.11,3.94L238.73,38l-4.25-1.38-3.79,11.65-3.61-1.18Zm30.14,5.09a8.15,8.15,0,0,1-4.36,4.26,7,7,0,0,1-5.75-.57,6.92,6.92,0,0,1-3.82-4.34,8.11,8.11,0,0,1,.87-6,8.13,8.13,0,0,1,4.36-4.25,7.88,7.88,0,0,1,9.58,4.87,8.12,8.12,0,0,1-.88,6Zm-3.49-1.79a8.21,8.21,0,0,0,.8-2.17,4.43,4.43,0,0,0,0-1.73,2.84,2.84,0,0,0-.58-1.3A3.22,3.22,0,0,0,251.73,44a3.11,3.11,0,0,0-1.38.29A4.64,4.64,0,0,0,249,45.34a8.18,8.18,0,0,0-1.31,1.94,7.34,7.34,0,0,0-.8,2.18,4.78,4.78,0,0,0,0,1.72,2.88,2.88,0,0,0,.59,1.3,3.07,3.07,0,0,0,1,.82,3.12,3.12,0,0,0,1.29.33,2.72,2.72,0,0,0,1.37-.31,4.57,4.57,0,0,0,1.37-1A8.13,8.13,0,0,0,253.73,50.36Zm29.06,24.28a4.52,4.52,0,0,1-1.6,1.24,4.12,4.12,0,0,1-1.79.35,5.63,5.63,0,0,1-2-.48,9.82,9.82,0,0,1-2.17-1.45l-4.64-3.89,9.72-11.6,4.09,3.44A18.06,18.06,0,0,1,286.2,64a4.71,4.71,0,0,1,.9,1.44,3,3,0,0,1,.17,1.68,3.41,3.41,0,0,1-.78,1.55,3.45,3.45,0,0,1-1.69,1.15,3.19,3.19,0,0,1-2,0l-.06.06a4,4,0,0,1,.95,2.36A3.43,3.43,0,0,1,282.79,74.64Zm.27-7.89a1.9,1.9,0,0,0,.34-.7,1.11,1.11,0,0,0-.09-.8,2.45,2.45,0,0,0-.57-.71c-.38-.34-.77-.67-1.16-1l-.2-.17-2.06,2.45.36.31,1.06.86a2.21,2.21,0,0,0,.76.36,1.27,1.27,0,0,0,.86,0,2.25,2.25,0,0,0,.7-.56Zm-3.22,5.32a1.82,1.82,0,0,0,.48-1,1.7,1.7,0,0,0-.26-1,2.72,2.72,0,0,0-.63-.72c-.31-.27-.71-.62-1.24-1.06l-.53-.45-2.43,2.9.15.14c.75.63,1.28,1.07,1.58,1.3a3.25,3.25,0,0,0,1.07.53,1.49,1.49,0,0,0,1,0A2.07,2.07,0,0,0,279.84,72.07Zm5.61,11.63,11.41-9.93,6.71,7.72-2.18,1.9-4.23-4.87-2,1.74,3.9,4.48-2.19,1.9L293,82.15l-2.88,2.51,4.23,4.86-2.18,1.9Zm18.08,22.9,15.65-3.14,2.07,3.59-10.54,12-2-3.39,2.2-2.36-2.37-4.12-3.15.73-1.9-3.3Zm9.39,4.6,3.54-3.83-5.09,1.15Z" transform="translate(-11.34 -14.15)"/>
    <path class="d" d="M73.41,282.55l-14.28,6.29-2.57-3.28,5.88-7.68-8.82,3.91-2.57-3.29,9.57-12.33,2.43,3.11-6.71,7.88,9.55-4.24,2.32,3L61.7,284l9.35-4.52,2.36,3ZM76,306.43l-2.73-2.64L77.92,299l-3.72-3.59-4.66,4.82-2.73-2.63,10.51-10.89,2.73,2.65-3.85,4,3.72,3.6,3.85-4,2.73,2.64Zm22.6,7.93a8.13,8.13,0,0,1-5,3.52A7,7,0,0,1,88,316.42a6.94,6.94,0,0,1-3.1-4.88,9.47,9.47,0,0,1,6.77-9.32,6.91,6.91,0,0,1,5.59,1.45,7,7,0,0,1,3.11,4.86A8.11,8.11,0,0,1,98.59,314.36Zm-3.17-2.31a8.27,8.27,0,0,0,1.13-2,4.65,4.65,0,0,0,.32-1.7A2.91,2.91,0,0,0,96.5,307a3.26,3.26,0,0,0-2-1.52,3.06,3.06,0,0,0-1.41.08,4.52,4.52,0,0,0-1.53.82,8.11,8.11,0,0,0-1.61,1.71,8.32,8.32,0,0,0-1.13,2,4.48,4.48,0,0,0-.3,1.69,2.81,2.81,0,0,0,.37,1.37,3.09,3.09,0,0,0,2.1,1.5,2.84,2.84,0,0,0,1.41-.08,5.17,5.17,0,0,0,1.51-.81,8,8,0,0,0,1.56-1.7Zm40.11,12.21-9.21,12.6-3.87-1.56,1.26-9.59-5.69,7.8L114.15,332l2.12-15.46,3.66,1.47-1.87,10.19,6.15-8.45,3.5,1.41-1.57,10.32,5.83-8.59,3.56,1.42Zm.22,15.9,8.62-13.45,4,1,1.3,15.92-3.8-.95-.17-3.23-4.61-1.15-1.67,2.77-3.7-.91Zm9.83-3.57-.29-5.2-2.71,4.46,3,.74Zm24.22,10.18-3.62-.51L161.87,335l-1.47,10.44L157,345l2.11-15,4.61.64,3.58,9.26,1.2-8.59,3.44.49-2.1,15Zm12.1.32-.43-12.24L177,335l-.1-2.88,12.74-.44.1,2.88-4.46.16L185.7,347l-3.8.14ZM202.37,346a12.45,12.45,0,0,1-3.07.09,14.61,14.61,0,0,1-2.54-.49l-.5-3.56.34-.05a8.68,8.68,0,0,0,2.69,1.12,7.41,7.41,0,0,0,2.71.14,6.16,6.16,0,0,0,.84-.19,3,3,0,0,0,.81-.34,1.82,1.82,0,0,0,.6-.57,1.21,1.21,0,0,0,.16-.85,1.1,1.1,0,0,0-.57-.85,2.89,2.89,0,0,0-1.14-.37c-.56-.06-1.12-.11-1.69-.14a13.8,13.8,0,0,1-1.68-.22,5.07,5.07,0,0,1-2.73-1.3,4.33,4.33,0,0,1-1.12-2.48,4.05,4.05,0,0,1,1.31-3.66,7.34,7.34,0,0,1,4.27-1.93,12.73,12.73,0,0,1,2.69-.1,11.56,11.56,0,0,1,2.48.4l.48,3.42-.33,0a7.66,7.66,0,0,0-2.21-.92,6.41,6.41,0,0,0-3.42,0,3.87,3.87,0,0,0-.79.39,1.61,1.61,0,0,0-.54.56,1.08,1.08,0,0,0-.15.74,1.13,1.13,0,0,0,.53.86,4.12,4.12,0,0,0,1.66.39l1.5.13a13.87,13.87,0,0,1,1.55.23,5.23,5.23,0,0,1,2.54,1.18,4,4,0,0,1,1.11,2.41,4.37,4.37,0,0,1-1.25,3.84,7.62,7.62,0,0,1-4.54,2Zm28.71-6.76-4.18-11.5-4.21,1.53-1-2.71,12-4.36,1,2.71-4.2,1.53,4.18,11.5-3.57,1.3ZM255,321.06a8.14,8.14,0,0,1,.87,6,7,7,0,0,1-3.83,4.31,6.9,6.9,0,0,1-5.76.54,9.46,9.46,0,0,1-5.23-10.26,7.92,7.92,0,0,1,9.58-4.89,8.13,8.13,0,0,1,4.37,4.26Zm-3.49,1.77a8.89,8.89,0,0,0-1.3-1.92,4.68,4.68,0,0,0-1.37-1.05,2.68,2.68,0,0,0-1.39-.29,3.32,3.32,0,0,0-1.26.33,3.12,3.12,0,0,0-1,.8,3,3,0,0,0-.58,1.28,4.48,4.48,0,0,0,0,1.74,8.54,8.54,0,0,0,.8,2.21,8.26,8.26,0,0,0,1.29,1.93,4.52,4.52,0,0,0,1.37,1,2.76,2.76,0,0,0,1.39.3,3.19,3.19,0,0,0,1.26-.34,3.13,3.13,0,0,0,1-.85,2.7,2.7,0,0,0,.56-1.29,5,5,0,0,0,0-1.72,8.75,8.75,0,0,0-.8-2.16Zm30.78-16.92a4.27,4.27,0,0,1,.92,1.81,4,4,0,0,1,0,1.83,5.45,5.45,0,0,1-.86,1.92,9.64,9.64,0,0,1-1.84,1.85l-4.7,3.81-9.53-11.76,4.16-3.36a18.77,18.77,0,0,1,2-1.49,4.91,4.91,0,0,1,1.58-.6,3,3,0,0,1,1.68.14,3.73,3.73,0,0,1,2.18,2.94,3.22,3.22,0,0,1-.39,1.95l0,.06a4.14,4.14,0,0,1,2.5-.48,3.43,3.43,0,0,1,2.21,1.38Zm-7.69-1.76a1.57,1.57,0,0,0-.61-.47,1.13,1.13,0,0,0-.81-.06,2.14,2.14,0,0,0-.8.42l-1.19.95-.21.16,2,2.49.37-.3c.51-.41.86-.7,1.05-.88a2.15,2.15,0,0,0,.49-.67,1.28,1.28,0,0,0,.13-.86,2.62,2.62,0,0,0-.44-.78Zm4.61,4.17a2,2,0,0,0-.91-.68,1.8,1.8,0,0,0-1,.07,2.8,2.8,0,0,0-.83.49c-.32.24-.74.58-1.26,1l-.55.44,2.39,2.95.16-.13c.76-.62,1.29-1.06,1.58-1.31a3.17,3.17,0,0,0,.72-.94,1.48,1.48,0,0,0,.17-1,1.93,1.93,0,0,0-.43-.9Zm12-4.2-10.51-10.88,7.36-7.1,2,2.07-4.65,4.48,1.84,1.91,4.28-4.13,2,2.08-4.27,4.13,2.65,2.75,4.65-4.48,2,2.07-7.37,7.1ZM311,282.37l-9.46-12.86,2.38-3.4,15.33,4.49L317,273.81l-3.08-1-2.72,3.9,2,2.55-2.2,3.11Zm.2-10.45-5-1.6,3.2,4.13Z" transform="translate(-11.34 -14.15)"/>
    <path class="e" d="M72.31,282,58,288.3,55.47,285l5.88-7.67-8.82,3.91L50,278l9.57-12.34L62,268.73l-6.71,7.88,9.55-4.24,2.32,3-6.51,8.14L70,279l2.36,3Zm2.59,23.88-2.74-2.64,4.66-4.83-3.72-3.59-4.66,4.82L65.71,297l10.51-10.88L79,288.76l-3.85,4,3.72,3.59,3.85-4L85.41,295,74.9,305.88Zm22.59,7.93a8.13,8.13,0,0,1-5,3.52,7,7,0,0,1-5.58-1.46,6.94,6.94,0,0,1-3.1-4.88,9.47,9.47,0,0,1,6.77-9.32A7.9,7.9,0,0,1,99.3,308a8.11,8.11,0,0,1-1.81,5.83Zm-3.17-2.31a8.27,8.27,0,0,0,1.13-2,4.42,4.42,0,0,0,.31-1.7,2.76,2.76,0,0,0-.37-1.37,3.17,3.17,0,0,0-2-1.51,3.06,3.06,0,0,0-1.41.07,4.44,4.44,0,0,0-1.53.82,8.36,8.36,0,0,0-1.61,1.71,8.51,8.51,0,0,0-1.13,2,4.47,4.47,0,0,0-.3,1.69,2.89,2.89,0,0,0,.37,1.38,3.37,3.37,0,0,0,.87,1,3.09,3.09,0,0,0,1.23.53,2.8,2.8,0,0,0,1.4-.09,5.15,5.15,0,0,0,1.52-.8,8.31,8.31,0,0,0,1.56-1.7Zm40.11,12.21-9.21,12.59-3.87-1.56,1.26-9.58-5.69,7.8-3.87-1.57,2.12-15.45,3.66,1.47L117,327.59l6.15-8.44,3.5,1.41L125,330.87l5.83-8.59,3.56,1.43Zm.22,15.9,8.62-13.45,4,1,1.3,15.91-3.79-.95-.18-3.23-4.6-1.15-1.67,2.77-3.7-.91Zm9.83-3.57-.29-5.2-2.7,4.46,3,.74Zm24.22,10.19-3.62-.52-4.31-11.25L159.3,344.9l-3.44-.48,2.11-15,4.62.65,3.57,9.25,1.21-8.58,3.44.48Zm12.1.31-.43-12.23-4.47.14-.1-2.87,12.74-.45.1,2.88-4.47.16.42,12.23-3.79.14Zm20.47-1.06a12.45,12.45,0,0,1-3.07.09,15.59,15.59,0,0,1-2.54-.48l-.5-3.57.34,0a8.93,8.93,0,0,0,2.69,1.12,7.39,7.39,0,0,0,2.71.13,7.25,7.25,0,0,0,.84-.18,3.46,3.46,0,0,0,.82-.34,2,2,0,0,0,.6-.57,1.16,1.16,0,0,0,.15-.85,1.07,1.07,0,0,0-.57-.85,2.65,2.65,0,0,0-1.13-.37c-.56-.07-1.12-.12-1.69-.15a11.87,11.87,0,0,1-1.68-.21,5.21,5.21,0,0,1-2.73-1.3,4.27,4.27,0,0,1-1.12-2.49,4.06,4.06,0,0,1,1.3-3.66,7.36,7.36,0,0,1,4.27-1.92,12.8,12.8,0,0,1,2.7-.1,11.39,11.39,0,0,1,2.47.4l.49,3.42-.34.05a7.61,7.61,0,0,0-2.2-.92,6.44,6.44,0,0,0-3.43.05,3.87,3.87,0,0,0-.79.39,1.74,1.74,0,0,0-.54.57,1.12,1.12,0,0,0-.15.74,1.09,1.09,0,0,0,.54.85,4,4,0,0,0,1.65.39l1.5.13a14,14,0,0,1,1.55.24,5.19,5.19,0,0,1,2.54,1.18,3.86,3.86,0,0,1,1.11,2.4,4.35,4.35,0,0,1-1.25,3.84,7.67,7.67,0,0,1-4.54,2ZM230,338.72l-4.18-11.5-4.2,1.53-1-2.71,12-4.36,1,2.71-4.2,1.53,4.18,11.5Zm23.93-18.21a8.17,8.17,0,0,1,.88,6,7.89,7.89,0,0,1-9.6,4.86A9.49,9.49,0,0,1,240,321.14a7.89,7.89,0,0,1,9.58-4.89A8.13,8.13,0,0,1,253.91,320.51Zm-3.5,1.78a8.5,8.5,0,0,0-1.29-1.93,4.82,4.82,0,0,0-1.37-1.05,2.9,2.9,0,0,0-1.39-.29,3.41,3.41,0,0,0-1.26.33,3.32,3.32,0,0,0-1,.8,3.06,3.06,0,0,0-.57,1.29,4.48,4.48,0,0,0,0,1.74,8.3,8.3,0,0,0,.79,2.2,8.67,8.67,0,0,0,1.3,1.94,4.74,4.74,0,0,0,1.37,1,2.73,2.73,0,0,0,1.38.29,3.06,3.06,0,0,0,2.3-1.18,2.85,2.85,0,0,0,.56-1.29,5,5,0,0,0,0-1.72,8.18,8.18,0,0,0-.81-2.16Zm30.79-16.93a4.25,4.25,0,0,1,.92,1.82,4,4,0,0,1,0,1.82,5.23,5.23,0,0,1-.87,1.92,9.86,9.86,0,0,1-1.83,1.86l-4.7,3.81-9.53-11.76,4.15-3.37a18,18,0,0,1,2.05-1.48,4.85,4.85,0,0,1,1.58-.61,3,3,0,0,1,1.68.14,3.46,3.46,0,0,1,1.37,1.06,3.58,3.58,0,0,1,.81,1.89,3.23,3.23,0,0,1-.39,1.94l.05.06A4.06,4.06,0,0,1,279,304a3.48,3.48,0,0,1,2.21,1.37Zm-7.69-1.76a1.79,1.79,0,0,0-.62-.47,1.11,1.11,0,0,0-.8-.06,2.27,2.27,0,0,0-.8.42c-.27.21-.68.52-1.2.95l-.21.16,2,2.49.37-.3c.51-.41.86-.7,1.05-.88a2.18,2.18,0,0,0,.5-.67,1.28,1.28,0,0,0,.12-.86,2.39,2.39,0,0,0-.43-.78Zm4.61,4.17a1.82,1.82,0,0,0-.91-.67,1.76,1.76,0,0,0-1,.06,2.89,2.89,0,0,0-.83.49c-.33.24-.74.58-1.27,1l-.54.44,2.39,3,.15-.13c.77-.62,1.29-1.06,1.58-1.31a3,3,0,0,0,.73-.94,1.48,1.48,0,0,0,.17-1,1.93,1.93,0,0,0-.43-.9Zm12-4.19-10.51-10.89,7.36-7.1,2,2.08-4.65,4.48,1.85,1.91,4.27-4.13,2,2.07-4.28,4.13,2.66,2.75,4.65-4.47,2,2.07-7.37,7.1Zm19.82-21.76L300.47,269l2.38-3.4,15.33,4.49-2.25,3.21-3.07-1-2.73,3.89,2,2.55-2.2,3.11Zm.2-10.45-5-1.6,3.2,4.13Z" transform="translate(-11.34 -14.15)"/>
    <path class="f" d="M181.33,14.15a170.32,170.32,0,0,1,170,170h0a170.34,170.34,0,0,1-170,170h0a170.32,170.32,0,0,1-170-170h0a170.3,170.3,0,0,1,170-170Zm0,1.85h0A168.46,168.46,0,0,0,13.19,184.13h0A168.48,168.48,0,0,0,181.32,352.28h0A168.46,168.46,0,0,0,349.46,184.14h0A168.46,168.46,0,0,0,181.33,16Z" transform="translate(-11.34 -14.15)"/>
    <path class="g" d="M122.83,56.92h0l4-1.84,10.21,13,13.2,22.4,13,22,16.11,31.14,16.16,35h0l0,0v0h0v0l0,0v0h0q6.58,14.28,12.84,28.7l4,9.25,3.74,9,3.45,8.53,17.8,44.15,9.08,32.1L240.91,313h0l-4,1.84-10.21-13-13.2-22.4-13-22-16.11-31.13-16.15-35v-.05h0v0l0,0v0h0c-16.16-35-29.38-67.5-37.68-91.62L122,75,118.79,58.8l4-1.88h0Zm.77,1.67h0c-3,1.43.51,16.77,8.63,40.37l8.29,24.09,13.2,32.41,16.12,35h0v.05h0v0l0,0v0h0c16.12,35,32.2,66,45.13,88l12.68,21.51,9.39,12.64,3-1.38,4.58-2.11-9.39-31.17-17.42-43.18-3.41-8.45-3.75-8.94-4-9.31-4-9.29-4.28-9.6-4.52-9.78v-.05h0v0l0,0h0c-16.13-35-32.21-66-45.14-88L136,69.86l-9.38-12.64-3,1.37Zm46.29,132h0m0,0h0m-1.74.63h0" transform="translate(-11.34 -14.15)"/>
    <path class="g" d="M170.21,44.43h.08a2.75,2.75,0,0,1,1.55.43l.44.28.44.4.43.51,2,2.38,2.08,5.31,2.1,7.7h0l.89,3.27.91,3.73.9,4.13.89,4.08.91,4.52.9,4.91,4.61,25.08,4.43,34.49,3.15,38v.37h0l3.16,38.31,1.3,34.92-.45,25.46-.46,25.89L198,324.94l-4.38.52h0l-.12,0h0c-4.41.22-9.54-15.44-14.26-40.9l-4.65-25.05-4.47-34.66-3.19-38.29h0v-.05l0-.17V186l0-.2h0m3.55-139.55h0Zm0,0h0l-3.32.36L165.1,62.25l-.45,24.92-.45,25.37,1.3,34.85,3.17,38.28h0v.21l0,.16v.18l0,.2,3.18,38.3,4.46,34.59L181,284.24l4.54,24.5L190,323.81l3.33-.19h0l3.32-.36,1.93-15.61.45-24.92.45-25.37-1.31-34.85-3.16-38.28v-.37l-3.16-38.06-4.41-34.41-4.59-25L182,81.62l-.9-4.5L180.18,73l-.89-4.08-.9-3.7L177.51,62h0l-2-7.46-2-5.08-1.78-2.16-.3-.36-.28-.27-.27-.16-.18-.12-.17,0Zm0,0,23,277.35M166.82,185.82c-3.17-38.3-4.47-73.22-4-98.68l.47-25.89L165.75,45l4.39-.51h.07" transform="translate(-11.34 -14.15)"/>
    <path class="g" d="M219,48.93h0l4.28,1.2-.53,16.49-4.28,25.63-4.22,25.17-7.68,34.19L196.44,188.8h0l0,.12,0,.1h0l-10.15,37.2-10.76,33.35-9.15,23.81L157,307.65l-7.93,14.46L144.76,321h0l-4.27-1.2.52-16.49,4.29-25.63,4.21-25.17,7.69-34.19L167.3,181.1h0l0-.11h0m51.2-130.28h0c-3.23-.83-10.4,13.18-19.35,36.46L190,110.93l-10.73,33.28-10.14,37.14h0l0,.11h0v0s0,0,0,.11h0L159,218.73l-7.67,34.12-4.2,25.09L143,302.55l-1,15.71,3.2.93h0c3.23.84,10.4-13.18,19.35-36.46L173.72,259l10.73-33.28,10.14-37.14h0a.74.74,0,0,0,0-.12h0a.45.45,0,0,1,0-.11h0l10.14-37.15L212.47,117,216.67,92l4.12-24.61.94-15.71-3.2-.93ZM196.4,188.92h0m0,0,0,0v0Zm0,0,0,0h0s0,0,0,0h0m0,0Zm0,0h0Zm0,0h0Zm0,0h0Zm-1.78-.5Zm0,0v0h0Zm0,0Zm0,0,0,0h0m0,0,1.78.51h0m0,0h0M167.33,181v0l0-.11h0l10.15-37.19,10.76-33.35,9.15-23.81,9.33-24.26,7.94-14.47L219,48.93h0Zm0,0Zm0,0h0Zm0,0h0m0,0s0,0,0,0Zm0,0,0,0,0,0,0,0h0Zm0,0,1.78.5Zm0,0,0,0Zm0,0,0,0,0,0,0,0,0,0,0,0Zm0,0-1.77-.48" transform="translate(-11.34 -14.15)"/>
    <path class="g" d="M263.29,69.84h0l.1.09c3.41,2.78-2.72,18-15.42,40.45-12.57,22.22-31.51,51.73-53.78,83.21h0c0,.06,0,0,0,0l0,0,0,0q-9.07,12.84-18.46,25.46Q167,230.8,158.1,242.22c-29.32,37.43-52.58,61.32-57.65,57.85h0l-.06-.05c-3.45-2.86,2.68-18.1,15.36-40.5,12.58-22.21,31.52-51.73,53.79-83.2.06-.09,0,0,0,0l0-.05h0q9.09-12.84,18.46-25.46,8.64-11.64,17.58-23.06C235,90.25,258.22,66.37,263.29,69.84m-1,1.54h0l0,0c-4.12-2.92-26.43,20.79-55.15,57.46q-8.93,11.4-17.55,23-9.36,12.6-18.43,25.42c-.06.09,0,0,0,.05l0,0v0c-22.26,31.46-41.16,60.92-53.7,83.06-12.27,21.68-18.54,36.1-15.88,38.1l0,0c4.12,2.92,26.44-20.79,55.15-57.46,5.63-7.19,11.51-14.9,17.55-23s12.14-16.54,18.42-25.42c0,0,0,0,0,0l0-.05v0c22.26-31.46,41.16-60.91,53.7-83.06,12.27-21.68,18.55-36.11,15.88-38.1ZM194.2,193.61h0m0,0h0Zm-1.52-1h0Zm0,0h0Zm0,0M100.38,300l.05.05a.52.52,0,0,1-.11-.1l.06.05Zm69.18-123.74h0m1.51,1.06h0" transform="translate(-11.34 -14.15)"/>
    <path class="g" d="M297.8,104.69h0c.83,1.24.42,3.15-1.12,5.64l-1.37,2.23L293,115.37l-3.13,3.31-15.93,16.83-37.79,30.17-45.69,31.65-.08,0h0q-12.91,8.94-26,17.6L156,220.49l-8.17,5.24-7.85,4.89L99.53,255.8,69.47,270.29,66,265.23h0c-.84-1.23-.43-3.14,1.12-5.64l1.37-2.23,2.31-2.81,3.13-3.31,15.94-16.83,37.77-30.18,45.7-31.65.05,0-.19.13.21-.14h0q12.91-8.94,26-17.6l8.39-5.52,8.18-5.24,7.84-4.89,40.42-25.17L294.28,99.6l3.51,5.06v0Zm-1.54,1h0c-2.93-4.11-32,10.53-71.48,35.13l-7.7,4.8-8.16,5.23-8.5,5.59-8.54,5.63L183.16,168l-8.77,6.08h0v0h-.05c-45.57,31.57-83.21,61.63-99.06,78.37l-3,3.22-2.24,2.71-1.3,2.12-1.13,1.82-.41,1.25.38.57h0c2.93,4.11,32-10.52,71.48-35.13l7.7-4.8,8.16-5.23,8.51-5.6,8.53-5.62,8.72-5.88,8.77-6.07h0l.06,0,0,0h0c45.57-31.56,83.2-61.62,99-78.36l3.05-3.22,2.23-2.71,1.29-2.11,1.15-1.84.41-1.24-.39-.57ZM190.45,197.33h0m-1-1.51v0h0a.1.1,0,0,0,0,0Zm-15.1-21.72h0" transform="translate(-11.34 -14.15)"/>
    <path class="g" d="M318.26,149.19v0h0l1.09,4.31-14.54,7.78-24.35,9.08-23.9,8.91L223.1,189.71l-37.29,9.78h0l-.13,0h0l-.07,0h-.06q-15.21,4-30.5,7.63l-9.79,2.32-9.47,2.12-9,1.9-46.56,9.82L47,226.67l-1.56-6h0l-1.09-4.3,14.55-7.78,24.35-9.08,23.9-8.91,33.46-10.42,37.29-9.78h0l.12,0h.12q15.19-4,30.49-7.62l9.79-2.33,9.48-2.12,9-1.9,46.56-9.82,33.18-3.32,1.56,5.95Zm-1.78.47h0l-1.28-4.89-32.31,3.8-45.55,9.61-8.9,1.88L219,162.18l-9.88,2.34-9.9,2.35L189,169.42l-10.36,2.71h0l-.12,0h0l-.07,0h-.06c-37.23,9.76-70.62,20.16-94.46,29.05L60.54,210l-14.09,7,.82,3.24h0l1.28,4.89,32.31-3.81,45.55-9.61,8.9-1.87,9.45-2.12,9.88-2.35,9.91-2.35,10.2-2.54,10.36-2.72h0l.12,0h0l.07,0h.06c37.23-9.76,70.63-20.15,94.47-29l23.39-8.73,14.08-7Z" transform="translate(-11.34 -14.15)"/>
    <path class="g" d="M322.26,198s0,.05,0,.08l-.19,1.46-1.57,1.19-2.81.92-2.51.81-3.6.66-4.55.52-23,2.6-48.12-1.18L180.73,200l-.58-.05h0l-38.33-3.58-34.63-4.82-25-4.89-25.42-5-15.6-5.29.27-4.41h0m279,25.93v0h0s0,0,0,0h0l.23-3.34-15-4.64-24.46-4.79-24.94-4.89-34.56-4.81-38.23-3.56h0l-1.54-.14,2,.17-.83-.07L128,166.66l-48.09-1.2-23,2.6-4.42.5L49,169.2l-2.38.78-2.08.67-1.14.69-.1.68v0l-.23,3.34,15,4.63,24.46,4.79,24.94,4.89,34.56,4.81,38.23,3.57h0l1.54.14-2-.18.83.08,55.09,5.12,48.09,1.2,23-2.6,4.43-.5,3.48-.64,2.38-.78,2.09-.68,1.15-.69.08-.68Zm0,0h0m-279-25.91s0,0,0-.06,0,0,0-.08l.19-1.47,1.58-1.19,2.81-.91,2.5-.82,3.6-.66,4.55-.52,23-2.6,48.09,1.18,55.08,5.12c-.16,0-.14,0,.66,0h0l38.33,3.58,34.62,4.82,25,4.89,25.45,5,15.61,5.29-.31,4.42s0,0,0,.05h0m-278.95-26h0m0,0h0m0,0h0Zm0,0ZM183,169.92h0Zm137.47,27.93h0" transform="translate(-11.34 -14.15)"/>
    <path class="g" d="M309.32,245.25h0Zm0,0Zm0,0,0,0s0,0,0,0l0,0-.65,1.35-1.86.61-2.95-.09-2.61-.08-3.59-.6-4.43-1.06L270.67,240l-45-17.65-50.24-23.79h0l0,0h0l-9.8-4.65-9.46-4.61-9-4.52-9-4.51-8.63-4.47-8.15-4.36L79.46,149.05,51.94,130.28l2.48-5.61h0l0-.06h0c.65-1.35,2.52-2,5.45-1.86l2.61.08,3.59.6,4.43,1.07,22.54,5.39,45,17.66,50.25,23.79h0l0,0h0L198.2,176l9.45,4.62,9,4.52,9,4.51,8.63,4.46,8.15,4.36,41.86,22.37,27.51,18.75-2.44,5.63Zm-1.7-.72h0v0c2.09-4.6-25.09-22.46-66.12-44.38l-8-4.27-8.6-4.46-9.1-4.57-9.06-4.55-9.45-4.61-9.71-4.6-.07,0h0c-50.13-23.73-95-41.33-117.43-46.71l-4.31-1-3.47-.57-2.48-.08-2.16-.06-1.29.26-.29.61h0C54,130,81.17,147.88,122.21,169.8l8,4.27,8.6,4.46,9.1,4.57,9.06,4.56,9.45,4.6,9.71,4.6.07,0h0c50.12,23.73,95,41.34,117.42,46.71l4.32,1,3.46.58,2.49.07,2.14.06,1.28-.25.3-.6Zm0,0h0m0,0h0M54.41,124.67l0,0Zm0,0h0Zm0,0" transform="translate(-11.34 -14.15)"/>
    <path class="g" d="M281,285.25h0c-1.06,1.05-3,1-5.75-.11a57,57,0,0,1-9.4-5.27c-19.33-12.79-55.58-44.79-94.65-84.34h0s0,0,0-.05C144,168.05,120.51,142,104.49,122.15,88.16,101.92,79.62,87.8,82.77,84.66h0c1.07-1.05,3-1,5.76.11A56.21,56.21,0,0,1,97.93,90c19.33,12.79,55.58,44.78,94.66,84.33v0h0q9.12,9.24,18.08,18.65,8.42,8.85,16.66,17.86c27.19,29.77,46.85,54.52,52.6,66.37h0v0h0c.23.49.46,1,.67,1.46s.38.95.51,1.34C282,282.52,282,284.27,281,285.25Zm-1.3-1.3h0c.43-.42.33-1.53-.27-3.24-.14-.41-.3-.82-.47-1.22s-.39-.88-.63-1.38v0h0c-5.68-11.69-25.22-36.29-52.31-65.94q-8.24-9-16.63-17.83-8.94-9.39-18.06-18.62h0c-39-39.46-75.13-71.36-94.36-84.09a54.88,54.88,0,0,0-9.06-5.09c-2-.8-3.29-1-3.78-.52h0c-2.37,2.35,6.17,15.58,21.85,35,16,19.82,39.44,45.81,66.52,73.22h0v0h0c39,39.46,75.12,71.36,94.35,84.09a54.88,54.88,0,0,0,9.06,5.09C277.89,284.23,279.17,284.42,279.67,284ZM172.46,194.24" transform="translate(-11.34 -14.15)"/>
    <path class="h" d="M282.07,85.75h0l.37.38.24.5.1.6.08.5,0,.6-.12.66-.54,3-2.74,5-4.57,6.59h0l0,0-1.92,2.77-2.28,3.08-2.59,3.36-2.59,3.36-2.88,3.6-3.14,3.79-16.23,19.61-23.59,25.55-27.17,26.89h0l-5.05,5-5,4.87-4.9,4.7L172.59,215l-4.84,4.57L163,223.94l-24.35,22.67-21.53,18.16-14.69,10.39h0l-1.46,1-1.44,1-1.39.92-1.37.9-1.28.81-1.19.72-6.52,3.95-4.41,1.36-1.71-1.71h0l-.42-.43-.25-.56-.07-.69-.06-.59.06-.68.18-.77.85-3.6,3.6-6.11,5.84-8h0l2.06-2.82,2.37-3.09,2.65-3.35,2.67-3.36,2.89-3.52,3.09-3.68,16.07-19.1,22.44-24.17,25.63-25.36h0l6.14-6.08,6-5.87,5.91-5.64,5.93-5.66,5.8-5.43,5.62-5.16,29-26.59,24.34-19.55,12.5-6.69h.1m8.11-.45h0c-.51-.51-1.9-.29-4.08.58l-.46.19-.51.23-.56.26-.58.28-.57.29-.56.3,0,0,.26-.13-.27.14h0C261,95.83,236.83,115.27,208,141.75l-5.62,5.16-5.79,5.42L190.65,158l-5.94,5.67-6,5.87-6.09,6,0,0h0L147,200.86,124.61,225l-16.07,19.11-3.16,3.75-2.88,3.52-2.58,3.25-2.59,3.26L95,261l-2.09,2.86h0l-5.7,7.81-3.5,5.88-.79,3.34-.13.57,0,.48,0,.37,0,.26.07.2.11.12h0c1,1,4.65-.42,10.38-3.89l1.19-.72,1.26-.79,1.32-.89,1.3-.86,1.42-1,1.52-1.08h0L116,263.28l21.46-18.1,24.28-22.59,4.74-4.41,4.83-4.57,4.89-4.7,4.93-4.73,5-4.86,5-5h0l27.1-26.84L241.82,142,258,122.44l3.16-3.83,2.87-3.57,2.55-3.3,2.54-3.29,2.25-3.06,1.94-2.78h0l4.44-6.39,2.64-4.78.49-2.75.08-.45,0-.38-.05-.31,0-.21-.06-.15-.1-.11Zm1.3-1.31h0m-9.41,1.76c.63-.34,1.21-.63,1.7-.87l.56-.26.54-.24.53-.22,2.91-1.17,2.07-.1,1.09,1.1" transform="translate(-11.34 -14.15)"/>
    <path class="h" d="M308.3,126.81h0l-1.41-3-15.35,3.51-23.61,8.11-24.1,8.26-32.43,13.17-35,16.08h-.1l0,0h0c-35,16.09-66.08,32.14-88,45L66.72,230.68l-12.65,9.37,1.38,3M310,126h0l2.57,5.6-27.76,18.49-42.23,22-8.13,4.23-8.68,4.37-9.08,4.44-9,4.41-9.52,4.51-9.89,4.55h0l0,0h0l0,0,0,0h0C153,214.8,120.54,228,96.42,236.27L71.83,244.7l-16.19,3.22-1.87-4h0l-1.84-4,13-10.19,22.41-13.19,22-12.94,31.16-16.07,35-16.12h0l0,0h0l0,0h0c35.06-16.12,67.54-29.32,91.65-37.59l24.59-8.43L308.08,122l1.88,4ZM55.45,243.1l1.41,3,15.35-3.51,23.62-8.11,24.1-8.27,32.43-13.17,35-16.08h.1l0,0h0q14.26-6.57,28.37-13.45l9.07-4.44,8.66-4.37,8.12-4.22L283,149l27.4-17.58-2.11-4.59" transform="translate(-11.34 -14.15)"/>
    <path class="h" d="M146,48.6h0l1.45-.37,1.66,1,1.83,2.31,1.62,2.05,1.85,3.13,2,4.09,10.37,20.73,15.47,45.79,14.14,53.75,0,0v.07h0q4,15.19,7.65,30.48l2.34,9.81,2.13,9.47,1.91,9,9.87,46.55,3.35,33.17-6,1.57h0l-1.45.37-1.66-1.05-1.83-2.31-1.62-2.05-1.86-3.13-2-4.08-10.37-20.73-15.47-45.79-14.15-53.75,0-.06v-.06h0c-9.81-37.27-17.19-71.52-21.17-96.72L142,66.29l-.38-16.48,4.27-1.19h0Zm.46,1.78h0c-3.2,1-2.39,16.66,1.5,41.26l4,25.12L159.25,151l9.81,37.24h0l0,.08v0h0l14.12,53.62,15.41,45.65,10.33,20.64,2,4,1.79,3,1.55,2,1.34,1.7,1,.81.66-.17h0l4.89-1.28-3.83-32.31-9.65-45.53-1.89-8.92L204.69,222l-2.35-9.85L200,202.29l-2.56-10.2-2.73-10.38h0l0-.08h0v0L180.54,128,165.12,82.32,154.79,61.68l-2-4-1.79-3-1.54-1.95L148.14,51l-1-.81-.66.16Z" transform="translate(-11.34 -14.15)"/>
    <path class="h" d="M194.82,44.55h.06l1.47.18,1.19,1.57.92,2.81.82,2.5.67,3.6.51,4.54,2.64,23.05L202,131l-5.07,55.16,0,.52h0L193.29,225l-4.77,34.63-4.87,25-5,25.45-5.28,15.62-4.42-.3h-.13l-4.38-.54-2.34-16.3-.22-25.91-.23-25.39,1.62-34.84,3.51-38.26.05-.54.06-.64-.18,1.93.14-1.62h0l3.54-38.32,4.78-34.63,4.87-25,5-25.46,5.28-15.61,4.41.3h.08Zm-.18,1.84h0Zm2.06,3.3L196,47.62l-.69-1.14-.69-.09h0l-3.33-.23-4.62,15L181.9,85.66,177,110.6l-4.77,34.57-3.54,38.23h0l-.12,1.4.16-1.93-.08.87,0,.54-3.5,38.15-1.61,34.78.23,25.38.21,24.89,1.8,15.62,3.31.43h0l3.33.23,4.62-15,4.77-24.45,4.86-24.95,4.78-34.57L195,186.52h0l.12-1.4-.16,1.93.08-.87,5.08-55.12L201.26,83l-2.62-23-.51-4.43-.64-3.47-.79-2.39Z" transform="translate(-11.34 -14.15)"/>
    <path class="h" d="M241.3,59.13h0c-3-1.38-12.53,11.17-25.4,32.55l-13.12,21.81-16.36,30.93L170,179.23l0,.07h0l0,0v0h0L153.44,214.2,140,246.49l-8.51,24L123.11,294l-3.67,15.31,3,1.45h0c4.59,2.09,22.43-25.12,44.31-66.17l4.26-8,4.45-8.61,4.56-9.1,4.55-9.06,4.6-9.45,4.58-9.72,0-.07h0l0,0h0v0h0l16.45-34.83,13.48-32.29,8.5-24,8.33-23.52,3.66-15.3-3-1.47Zm0,0h0m0,0,.79-1.67h0c4,1.93.62,18.08-8.06,42.57l-8.52,24L212,156.42,195.53,191.3h0M242.07,57.45h0M195.53,191.32l0,.07v.05h0l-4.63,9.81-4.61,9.46-4.51,9-4.49,9-4.46,8.63-4.35,8.16L146.07,287.4l-18.73,27.54-5.62-2.47h0l0,0h0c-4-1.93-.62-18.08,8.06-42.57l8.52-24.05,13.51-32.34,16.47-34.88,0-.07h0v0h0v0l16.47-34.89,16.39-31L214.3,90.71l13.4-22.27L238,55.57l4,1.87m-120.35,255h0Zm.74-1.69h0" transform="translate(-11.34 -14.15)"/>
    <path class="h" d="M322.41,173.43h0s0,0,0,.06l.08,1.48-1.34,1.44-2.61,1.4-2.32,1.23-3.43,1.29-4.38,1.29-22.29,6.6-47.73,7.21L183.1,200h0l-.38,0-10.72.87-10.49.74-10.13.59-10.06.59-9.69.44-9.17.31L75,205.11l-33.15-2.5-.52-6.13h0v-.05l-.08-1.48,1.34-1.45,2.6-1.39,2.33-1.24L51,189.58l4.38-1.3,22.29-6.59,47.73-7.21,55.29-4.54h0Zm-1.85.15,0,0h0l-.42-5-32.38-1.87-46.42,1.53-9.11.3-9.67.44-10.1.59-10,.59-10.47.73-10.79.88H181l-.16,0h0l-55.2,4.52L78,183.49,55.85,190l-4.28,1.27-3.3,1.23-2.21,1.18-1.92,1-1,.87,0,.7v0h0l.41,5L76,203.23l46.41-1.54,9.11-.3,9.67-.44,10.1-.59,10-.58,10.48-.74,10.79-.88h.21l.16,0h0l55.2-4.52,47.59-7.18,22.15-6.56,4.27-1.26,3.31-1.23,2.2-1.18,1.93-1,1-.87,0-.7ZM183.1,200h0M43.19,196.33h0Zm0,0,137.45-26.4.38,0,10.72-.88,10.49-.73,10.13-.59,10.07-.59,9.68-.44,9.18-.31,47.44-1.56,33.16,2.49.51,6.14" transform="translate(-11.34 -14.15)"/>
    <path class="h" d="M317.86,222.22h0l-.41,1.44-1.74.91-2.91.42-2.6.38-3.64,0-4.54-.27-23.14-1.41-47.38-9.57-53.6-14.69h-.11l-37.17-10.19-33.35-10.79L83.45,169.3,59.2,160,44.75,152l1.13-4.29h0l.41-1.44,1.73-.91L51,144.9l2.6-.37,3.64,0,4.54.28,23.14,1.4,47.38,9.57,53.6,14.69h0l.07,0h0l37.18,10.19,33.34,10.79,23.81,9.19L304.54,210,319,217.91l-1.14,4.29v0Zm-1.79-.47v0h0c.83-3.23-13.17-10.41-36.45-19.39l-23.73-9.15-33.27-10.76-37.15-10.18-.11,0h0l-53.48-14.65L84.66,148l-23-1.41-4.44-.27-3.51,0-2.46.35-2.13.32-1.21.47-.2.66h0c-.84,3.23,13.17,10.41,36.44,19.39l23.73,9.15,33.28,10.77,37.14,10.18.12,0h0l53.47,14.66,47.23,9.54,23,1.4,4.44.27,3.52,0,2.46-.35,2.12-.31,1.22-.48.19-.66Z" transform="translate(-11.34 -14.15)"/>
    <path class="h" d="M296.91,266.49h0l-.06.08h0c-.9,1.15-2.82,1.4-5.64.81l-2.55-.53-3.43-1.21L281,263.84l-21.26-9.24-41.25-25.21-45.35-32.15h0m122.22,68.23h0Zm-3.81.13,2.09.44,1.3,0,.41-.53h0v0l0,0v0h0c1.8-2.79-8.89-14.31-27.64-30.66L248.6,218,221,196.48,189.58,174.2h0l-.05,0h0l0,0,0,0-31.42-22.27-29.45-18.93-22.15-12.56-21.67-12.3-14.42-6.28-2,2.67h0v0h0c-1.83,2.77,8.87,14.3,27.62,30.66l19.18,16.73,27.6,21.52,31.42,22.28h0l.11.08-.13-.1.09.06h0l45.25,32.08L260.6,253l21.16,9.19,4.07,1.76,3.31,1.17,2.43.51ZM173.16,197.24m0,0h0m0,0-.07-.05-31.47-22.31L114,153.32,94.75,136.55,75.18,119.48l-10.85-12.4,2.51-3.65h0l0,0,0,0,.06-.06c2.82-3.38,18,2.77,40.43,15.47l22.19,12.59,29.49,19,31.47,22.32h0l.09.06-.08-.05,0,0,.05,0h0L222.11,195l27.65,21.57L269,233.35l19.57,17.07,10.86,12.4-2.51,3.66h0M66.84,103.42m1.5,1.07h0m0,0h0m122.23,68.16h0Zm-1,1.52,0,0,0,0h0Zm0,0h0Zm0,0" transform="translate(-11.34 -14.15)"/>
    <path class="h" d="M262,301h0c-1.24.84-3.15.43-5.64-1.12A56.21,56.21,0,0,1,248,293c-16.82-15.95-47-53.76-78.56-99.5,0,0,.1.16,0-.06h0c-21.94-31.74-40.55-61.46-52.86-83.79C104,86.9,98.05,71.51,101.7,69h0c3.68-2.48,16,8.52,32.79,28.31,16.53,19.41,37.75,47.32,59.7,79.08l0,0h0q6.5,9.39,12.82,18.88,6,9,11.87,18.13C238.42,243.71,253,269.55,259.52,285l0,0c.51,1.2.95,2.32,1.35,3.35s.75,2.06,1.06,3c1.66,5.13,1.77,8.47.09,9.63Zm-1-1.54h0c.9-.64.57-3.26-.81-7.53-.3-.9-.64-1.88-1-2.9s-.84-2.17-1.32-3.29v0c-6.45-15.32-21-41.05-40.42-71.26q-5.83-9.1-11.85-18.1-6.31-9.48-12.8-18.85h0v0h0l0-.06c-21.89-31.67-43.07-59.53-59.59-78.93-16.2-19-27.61-29.86-30.36-28h0c-2.72,1.93,3.39,16.44,15.45,38.28,12.3,22.31,30.87,52,52.77,83.66v0l0,0v0h0c31.52,45.62,61.55,83.3,78.28,99.17a55,55,0,0,0,8,6.59c1.83,1.14,3.08,1.55,3.64,1.16ZM171,192.5v0m0,0h0" transform="translate(-11.34 -14.15)"/>
    <path class="i" d="M171.92,80.46c9-11.85,19.56-23.1,30.5-27.75C220,45.22,236.64,54,238.25,73.09c.84,9.89-2.53,20.77-7.94,27.66-7.93,10.09-22.52,17.72-30.62,24.43-6,5-6.46,7.17-7.46,14.49a100.15,100.15,0,0,0-.8,16.65l-12.82,9a254.25,254.25,0,0,1,.71-25.64,57.59,57.59,0,0,1,2.07-12.38c1.78-5.57,5-8.68,12.44-14S211.48,101.7,217.66,96c5.55-5.16,10.78-12.55,12-20.31.89-5.64-.58-11-3.92-14.33-3-3-7.36-4.44-12.9-3.28a24.5,24.5,0,0,0-10.32,5c-7.1,5.83-13.53,15.73-20.28,27.55-3.44-3.13-6.88-7-10.32-10.11Zm-6.66,112.65,3.35,4.33L154,204.89c4.47,4.94,7.73,10.92,11.39,16.74-4,1.46-6.75,2.64-10.78,4.1a39.27,39.27,0,0,0-7.6-17.29l-25.66,13.05c4.09,12.36,7.31,26.21-9.64,31.67-13.88,4.47-25.43-.58-34.5-9.22l-16.9,8.6-3.34-4.33,16.37-8.33A86.41,86.41,0,0,1,58,213.51c3.8-.26,8-.5,11.77-.78,1.2,7.5,2.94,15.62,9.29,23.84l.22.28,28-14.24c-4-11.57-6.94-23.8,9-28.93,9.6-3.09,23.76-1.77,33.87,7.14Zm-56.19,34.61-25.95,13.2c6.82,6,15.82,8.67,23.25,6.28,8.08-2.6,5.89-10.44,2.7-19.48Zm10.51-11.37,23.64-12c-5.52-4.63-14.42-7.56-22.42-5C114.93,201.23,116.79,208.07,119.58,216.35Zm65.51-15.11,4.08-3.65,8.49,14c4.61-4.81,10.33-8.5,15.87-12.57,1.74,3.92,3.12,6.54,4.87,10.46a39.07,39.07,0,0,0-16.69,8.83L216.59,243c12-5,25.61-9.18,32.28,7.33,5.47,13.52,1.27,25.4-6.69,35.07L252,301.63l-4.08,3.65-9.49-15.73a86.6,86.6,0,0,1-25.19,17.2c-.54-3.77-1.08-7.91-1.63-11.69,7.39-1.73,15.36-4.06,23.11-11l.25-.24-16.22-26.89c-11.25,4.84-23.25,8.64-29.51-6.85-3.77-9.34-3.49-23.56,4.67-34.3l-8.79-14.55Zm38.59,53.53,15,24.93c5.5-7.24,7.5-16.4,4.57-23.64-3.18-7.87-10.84-5.12-19.62-1.29Zm-12.11-9.66-13.71-22.7c-4.21,5.84-6.48,14.93-3.33,22.73,2.31,5.7,9,3.36,17,0ZM194,174.7l-3.28-4.38,14.75-7.22c-4.38-5-7.55-11-11.12-16.92,4.06-1.39,6.78-2.53,10.84-3.92a39.24,39.24,0,0,0,7.33,17.4L238.39,147c-3.89-12.41-6.9-26.32,10.14-31.51,14-4.25,25.42,1,34.35,9.76l17-8.33,3.27,4.38-16.49,8.07A86.52,86.52,0,0,1,301.6,156c-3.8.2-8,.38-11.78.59-1.08-7.51-2.7-15.66-8.92-24-.07-.09-.14-.19-.22-.28l-28.21,13.79C256.3,157.75,259,170,243,174.9c-9.63,2.94-23.78,1.39-33.75-7.67ZM250.74,141l26.14-12.79c-6.72-6.11-15.68-8.91-23.14-6.64-8.11,2.47-6.05,10.36-3,19.43Zm-10.69,11.22-23.83,11.65c5.45,4.72,14.31,7.78,22.35,5.32,5.89-1.79,4.14-8.65,1.48-17Zm-66.22,16.26-4.12,3.61-8.34-14.14c-4.65,4.77-10.42,8.4-16,12.41-1.7-3.93-3.05-6.56-4.76-10.5a39.14,39.14,0,0,0,16.78-8.66l-14.63-24.8c-12.07,4.86-25.7,8.93-32.21-7.64-5.32-13.58-1-25.42,7-35L108,67.39l4.11-3.61,9.34,15.82a86.34,86.34,0,0,1,25.36-16.94c.5,3.78,1,7.92,1.5,11.69-7.4,1.67-15.39,3.91-23.21,10.76l-.26.24,16,27.05c11.3-4.73,23.33-8.41,29.43,7.14,3.68,9.39,3.25,23.6-5,34.25Zm-38.05-53.91L121,89.46c-5.58,7.18-7.67,16.32-4.82,23.6,3.1,7.89,10.8,5.22,19.61,1.48Zm12,9.77,13.48,22.85c4.28-5.8,6.64-14.87,3.57-22.69-2.26-5.74-9-3.46-17.05-.16Zm135.59,54.22c11.73,9.15,22.83,19.86,27.35,30.85C318,227.08,309,243.59,289.89,245c-9.9.71-20.73-2.79-27.55-8.3-10-8.06-17.44-22.75-24-30.94-4.92-6.08-7.09-6.55-14.4-7.65a98.64,98.64,0,0,0-16.64-1l-8.87-12.94a255.64,255.64,0,0,1,25.64,1,58.45,58.45,0,0,1,12.34,2.23c5.55,1.85,8.62,5.13,13.86,12.63s11.39,17.79,17.06,24.05c5.09,5.62,12.41,10.94,20.14,12.26,5.62,1,11-.44,14.38-3.73,3-2.91,4.54-7.3,3.45-12.86a24.59,24.59,0,0,0-4.86-10.38c-5.73-7.18-15.55-13.73-27.28-20.63,3.19-3.4,7.08-6.79,10.26-10.19Zm-97.8,110.4c-9.12,11.76-19.8,22.89-30.78,27.44-17.68,7.31-34.21-1.66-35.63-20.75-.73-9.9,2.75-20.74,8.23-27.57,8-10,22.7-17.5,30.87-24.12,6.07-4.93,6.53-7.09,7.61-14.41a99.75,99.75,0,0,0,1-16.64l12.92-8.9a255.07,255.07,0,0,1-1,25.64,57.5,57.5,0,0,1-2.2,12.35c-1.84,5.56-5.11,8.63-12.58,13.89S146.25,267.3,140,273c-5.6,5.12-10.91,12.44-12.21,20.19-.94,5.62.47,10.95,3.78,14.37,2.91,3,7.31,4.52,12.87,3.42a24.76,24.76,0,0,0,10.36-4.89c7.17-5.76,13.69-15.59,20.56-27.34,3.41,3.15,6.81,7,10.22,10.2ZM77.65,192.47C65.52,183.86,54,173.65,49,162.85c-8-17.36.24-34.24,19.25-36.45,9.86-1.15,20.84,1.88,27.9,7.07,10.33,7.62,18.42,22,25.38,29.85,5.17,5.86,7.36,6.24,14.71,7a100.3,100.3,0,0,0,16.67.27l9.43,12.53a255.86,255.86,0,0,1-25.66.1,57.18,57.18,0,0,1-12.43-1.69c-5.63-1.61-8.84-4.75-14.4-12S97.65,152.27,91.7,146.27c-5.33-5.39-12.88-10.39-20.67-11.36-5.66-.71-10.93.92-14.2,4.36-2.88,3-4.21,7.49-2.88,13a24.71,24.71,0,0,0,5.32,10.15c6,6.92,16.14,13,28.17,19.4-3,3.55-6.77,7.11-9.79,10.64Z" transform="translate(-11.34 -14.15)"/>
    <path class="j" d="M229.52,101.71a50.54,50.54,0,0,1-5.24,5.33,89.46,89.46,0,0,0-12.64-6.16,76,76,0,0,0,6-4.93l.31-.29a96.07,96.07,0,0,1,11.55,6ZM184,87.6q-.85,1.47-1.71,3-1.63-1.5-3.2-3.08h.11C180.76,87.49,182.36,87.53,184,87.6Zm63.49,28.25q2.87,2.87,5.48,6a6.86,6.86,0,0,0-4.74,5.64,91.15,91.15,0,0,0-7.46-8,21.73,21.73,0,0,1,6.72-3.58Zm15,19.39q1.38,2.32,2.61,4.71l-6.52,3.2q-1.25-2.4-2.63-4.71l6.54-3.2ZM275.77,186c0,1.39-.08,2.77-.17,4.16-.82-.5-1.64-1-2.47-1.46C274,187.82,274.86,186.92,275.77,186Zm-8.57,37.91A97.38,97.38,0,0,1,261,235.49a53.06,53.06,0,0,1-5.21-5.39,88.63,88.63,0,0,0,6.32-12.63A75.81,75.81,0,0,0,267.2,223.94ZM249,250.78q-2.72,2.85-5.66,5.47l-.08-.2c-1.17-2.9-3-4.36-5.18-4.85a90.88,90.88,0,0,0,7.21-7.08,24.08,24.08,0,0,1,3.53,6.21C248.93,250.48,249,250.63,249,250.78ZM230.45,266c-1.52.95-3.06,1.87-4.63,2.74l-3.76-6.22c1.57-.87,3.12-1.79,4.64-2.74l3.75,6.22Zm-53,14.79c-1.09,0-2.18,0-3.27-.1l1.15-2C176.07,279.37,176.77,280.06,177.48,280.77Zm-37.11-8.13a95.34,95.34,0,0,1-11.67-6.13,53.32,53.32,0,0,1,5.41-5.22,89.9,89.9,0,0,0,12.8,6.2A83,83,0,0,0,140.37,272.64Zm-28.74-19.46c-1.93-1.88-3.78-3.85-5.55-5.88l.29-.09c2.92-.94,4.5-2.58,5.18-4.7a89.19,89.19,0,0,0,7,7.26,23.49,23.49,0,0,1-6.9,3.4ZM96.49,234.13c-.94-1.54-1.82-3.1-2.67-4.68l6.48-3.3q1.28,2.39,2.68,4.67Zm-13.94-47c-.09-2.64-.06-5.28.07-7.91,1.57.86,3.17,1.73,4.82,2.6-1.51,1.77-3.2,3.54-4.89,5.31Zm8.13-41.87a98.59,98.59,0,0,1,6-11.39,47.93,47.93,0,0,1,5.5,5,88.35,88.35,0,0,0-6.07,12.35q-2.07-2.56-4.37-4.92c-.33-.34-.67-.68-1-1Zm19.2-28.43q2.76-2.84,5.74-5.45c.16.56.34,1.12.55,1.66a7.69,7.69,0,0,0,3.62,4.35q-3.45,3.07-6.57,6.47a26.2,26.2,0,0,1-2.67-5.15C110.31,118.11,110.09,117.48,109.88,116.85ZM128.37,102c1.52-1,3.06-1.85,4.64-2.72l3.69,6.26c-1.57.86-3.12,1.77-4.64,2.71Z" transform="translate(-11.34 -14.15)"/>
    <g>
      <path class="d" d="M47.11,189.49a.87.87,0,0,0-.85.43,3.1,3.1,0,0,0-.32,1.13H45V180.13h.93c.11.94.5,1.4,1.17,1.4h23v.94a1.18,1.18,0,0,0-1.24,1.33v12.94a2.61,2.61,0,0,0,.15.94q.16.39.78.39h.39V199q-10.61,5.61-25.11,5.61a36.66,36.66,0,0,1-9.48-1.21,23.63,23.63,0,0,1-8.07-3.78,19.66,19.66,0,0,1-5.66-6.51,21,21,0,0,1,0-18.49,19.9,19.9,0,0,1,5.66-6.55,24.61,24.61,0,0,1,8.07-3.9,34.66,34.66,0,0,1,9.48-1.29c1.3,0,2.44,0,3.43.08a24.17,24.17,0,0,1,2.88.31c.94.16,1.9.35,2.89.59s2.16.53,3.51.89a26.38,26.38,0,0,1,3.59,1.29,7.36,7.36,0,0,0,2.11.74,1.38,1.38,0,0,0,1.09-.62l.93.31-5.07,10.3-.93-.55a2.83,2.83,0,0,0,.15-.86c0-.36-.44-.77-1.32-1.21A19.07,19.07,0,0,0,55,173a43.43,43.43,0,0,0-4.56-.93,32.53,32.53,0,0,0-5-.39,18.74,18.74,0,0,0-5.35.74,13.24,13.24,0,0,0-4.52,2.3,11.41,11.41,0,0,0-3.16,3.86,12,12,0,0,0-1.17,5.5,10.24,10.24,0,0,0,1.4,5.42,12.35,12.35,0,0,0,3.55,3.78,15.22,15.22,0,0,0,4.8,2.19,20.29,20.29,0,0,0,5.23.7,37.55,37.55,0,0,0,10.92-1.48v-5.15Z" transform="translate(-11.34 -14.15)"/>
      <path class="d" d="M109.83,189.41a2.51,2.51,0,0,0-.67-1.29,2.33,2.33,0,0,0-1.67-.5H93v7.25h25a1.07,1.07,0,0,0,.93-.43,4.58,4.58,0,0,0,.47-1.91h.94v13.34h-.94a2.07,2.07,0,0,0-.47-1.25,1.59,1.59,0,0,0-.93-.23H79.09v-.94a3.43,3.43,0,0,0,1.84-.51,1.21,1.21,0,0,0,.35-.89V165.7a1.25,1.25,0,0,0-.35-.9,3.56,3.56,0,0,0-1.84-.5v-.94H118a1.07,1.07,0,0,0,.93-.43,4.21,4.21,0,0,0,.47-1.75h.94v13.57h-.94A4.22,4.22,0,0,0,119,173a1.1,1.1,0,0,0-.93-.43H93V179h14.51a2.29,2.29,0,0,0,1.67-.51,2.51,2.51,0,0,0,.67-1.29h.93v12.17Z" transform="translate(-11.34 -14.15)"/>
      <path class="d" d="M145,202.05a1.21,1.21,0,0,0,.35.89,3.43,3.43,0,0,0,1.84.51v.94H131.12v-.94a3.36,3.36,0,0,0,1.83-.51,1.18,1.18,0,0,0,.35-.89V165.7a1.21,1.21,0,0,0-.35-.9,3.47,3.47,0,0,0-1.83-.5v-.94h28.55q8.66,0,12.55,3.16t3.91,9.79c0,3.58-1.06,6.39-3.16,8.42a18.24,18.24,0,0,1-8,4.37l9.21,13a2.69,2.69,0,0,0,2.26,1.4v.94H160.21v-.94c1.15,0,1.72-.52,1.72-1.4a4.3,4.3,0,0,0-.62-1.09c-.42-.63-.94-1.38-1.56-2.27s-1.32-1.83-2.07-2.84l-2.19-2.93c-.7-.93-1.31-1.77-1.83-2.49s-.86-1.23-1-1.49H145Zm13.11-21.37c2.28,0,3.86-.43,4.72-1.29a4.17,4.17,0,0,0,0-6c-.86-.86-2.44-1.28-4.72-1.28H145v8.58Z" transform="translate(-11.34 -14.15)"/>
      <path class="d" d="M196.72,202.67a.68.68,0,0,0,.27.59,2.18,2.18,0,0,0,1.13.19v.94H184.31v-.94a2.43,2.43,0,0,0,1.25-.51,3.63,3.63,0,0,0,.78-1.28c.11-.26.37-1,.78-2.11s1-2.58,1.64-4.33l2.26-5.81c.83-2.13,1.67-4.3,2.5-6.51s1.65-4.37,2.46-6.48,1.52-4,2.14-5.65l1.52-4.06c.39-1,.59-1.58.59-1.63,0-.26-.17-.45-.51-.55a7.26,7.26,0,0,0-1.05-.23v-.94H219v.94a4.33,4.33,0,0,0-1,.23q-.39.15-.39.78a19,19,0,0,0,.74,2c.5,1.25,1.13,2.87,1.91,4.87S222,176.48,223,179s2.07,5.1,3.16,7.72,2.15,5.19,3.16,7.68,1.94,4.74,2.77,6.71a7.88,7.88,0,0,0,1,1.87,1.45,1.45,0,0,0,1.13.47v.94H218.87v-.94c1,0,1.48-.36,1.48-.93a8.64,8.64,0,0,0-.39-1.06c-.26-.65-.55-1.37-.86-2.18s-.61-1.57-.9-2.3a11.32,11.32,0,0,1-.5-1.48H199.21c-.52,1.4-.93,2.54-1.25,3.43s-.55,1.58-.74,2.1l-.39,1.13A2.23,2.23,0,0,0,196.72,202.67Zm18.95-13.41-7.57-18.57-6.94,18.57Z" transform="translate(-11.34 -14.15)"/>
      <path class="d" d="M245.93,165.7a1.21,1.21,0,0,0-.35-.9,3.47,3.47,0,0,0-1.83-.5v-.94h18.8v.94a4,4,0,0,0-1.76.35.77.77,0,0,0-.43.66,6.85,6.85,0,0,0,1,1.4c.67.84,1.56,1.88,2.65,3.12s2.33,2.64,3.7,4.18,2.77,3.07,4.18,4.6,2.75,3,4,4.37l3.36,3.55V165.7c0-.88-.55-1.35-1.64-1.4v-.94H292v.94a3.47,3.47,0,0,0-1.83.5,1.25,1.25,0,0,0-.35.9v36.35a1.21,1.21,0,0,0,.35.89,3.36,3.36,0,0,0,1.83.51v.94H277.13v-.94a3.06,3.06,0,0,0,1.45-.23.74.74,0,0,0,.35-.63,1.11,1.11,0,0,0-.24-.58,10.8,10.8,0,0,0-1-1.21c-.52-.57-1.29-1.39-2.3-2.46s-2.36-2.49-4-4.29-3.72-4-6.16-6.71-5.38-5.94-8.82-9.78v24.49a1.18,1.18,0,0,0,.36.89,3.36,3.36,0,0,0,1.83.51v.94H243.75v-.94a3.36,3.36,0,0,0,1.83-.51,1.18,1.18,0,0,0,.35-.89Z" transform="translate(-11.34 -14.15)"/>
      <path class="d" d="M313.87,203.45a3.36,3.36,0,0,0,1.83-.51,1.18,1.18,0,0,0,.35-.89V172.87H302.64a1.1,1.1,0,0,0-.94.43,4.27,4.27,0,0,0-.47,1.76h-.93V161.18h.93a4.21,4.21,0,0,0,.47,1.75,1.08,1.08,0,0,0,.94.43h38.53a1.08,1.08,0,0,0,.94-.43,4.25,4.25,0,0,0,.46-1.75h.94v13.88h-.94a4.31,4.31,0,0,0-.46-1.76,1.1,1.1,0,0,0-.94-.43H327.75v29.18a1.18,1.18,0,0,0,.36.89,3.36,3.36,0,0,0,1.83.51v.94H313.87Z" transform="translate(-11.34 -14.15)"/>
    </g>
    <g>
      <path class="k" d="M46.22,187a.89.89,0,0,0-.86.43,2.93,2.93,0,0,0-.31,1.13h-.94V177.63h.94c.1.93.49,1.4,1.17,1.4h23V180A1.18,1.18,0,0,0,68,181.29v13a2.61,2.61,0,0,0,.15.94q.16.39.78.39h.4v.93q-10.62,5.63-25.12,5.62a36.66,36.66,0,0,1-9.48-1.21,23.81,23.81,0,0,1-8.07-3.78A19.66,19.66,0,0,1,21,190.62a21,21,0,0,1,0-18.49,19.9,19.9,0,0,1,5.66-6.55,24.41,24.41,0,0,1,8.07-3.9,34.66,34.66,0,0,1,9.48-1.29c1.3,0,2.44,0,3.43.08a24.57,24.57,0,0,1,2.89.31c.93.16,1.89.35,2.88.58s2.16.54,3.51.9a26.38,26.38,0,0,1,3.59,1.29,7.46,7.46,0,0,0,2.11.74,1.36,1.36,0,0,0,1.09-.62l.93.31-5.06,10.29-.94-.54a2.83,2.83,0,0,0,.15-.86c0-.36-.44-.77-1.32-1.21a18.94,18.94,0,0,0-3.35-1.21,44.19,44.19,0,0,0-4.57-.93,32.53,32.53,0,0,0-5-.39,18.72,18.72,0,0,0-5.34.74,13.29,13.29,0,0,0-4.53,2.3A11.53,11.53,0,0,0,31.55,176a12,12,0,0,0-1.17,5.5A10.16,10.16,0,0,0,31.79,187a12.23,12.23,0,0,0,3.55,3.78,15.17,15.17,0,0,0,4.79,2.19,20.74,20.74,0,0,0,5.23.7,40.2,40.2,0,0,0,5.89-.39,39.63,39.63,0,0,0,5-1.09V187Z" transform="translate(-11.34 -14.15)"/>
      <path class="k" d="M108.93,186.91a2.57,2.57,0,0,0-.66-1.29,2.36,2.36,0,0,0-1.68-.5H92.08v7.25h25a1.06,1.06,0,0,0,.93-.43,4.43,4.43,0,0,0,.47-1.91h.94v13.34h-.94a2,2,0,0,0-.47-1.25,1.5,1.5,0,0,0-.93-.23H78.2V201a3.42,3.42,0,0,0,1.83-.51,1.21,1.21,0,0,0,.35-.89V163.2a1.22,1.22,0,0,0-.35-.9,3.62,3.62,0,0,0-1.83-.51v-.93h38.92a1.06,1.06,0,0,0,.93-.43,4.07,4.07,0,0,0,.47-1.76h.94v13.58h-.94a4.07,4.07,0,0,0-.47-1.76,1.08,1.08,0,0,0-.93-.43h-25v6.48h14.51a2.31,2.31,0,0,0,1.68-.51,2.57,2.57,0,0,0,.66-1.29h.93v12.17Z" transform="translate(-11.34 -14.15)"/>
      <path class="k" d="M144.11,199.55a1.18,1.18,0,0,0,.35.89,3.36,3.36,0,0,0,1.83.51v.94H130.22V201a3.36,3.36,0,0,0,1.83-.51,1.18,1.18,0,0,0,.36-.89V163.2a1.19,1.19,0,0,0-.36-.9,3.55,3.55,0,0,0-1.83-.51v-.93h28.55q8.65,0,12.56,3.16t3.9,9.79c0,3.58-1.06,6.39-3.16,8.42a18.28,18.28,0,0,1-8,4.37l9.21,13a2.69,2.69,0,0,0,2.26,1.4v.94H159.32V201c1.14,0,1.71-.52,1.71-1.4a4.46,4.46,0,0,0-.62-1.1c-.42-.62-.94-1.37-1.56-2.26s-1.32-1.83-2.07-2.85l-2.18-2.92c-.71-.94-1.32-1.77-1.84-2.5s-.85-1.22-1-1.48h-7.64Zm13.1-21.38q3.43,0,4.72-1.28a4.15,4.15,0,0,0,0-6q-1.29-1.29-4.72-1.29h-13.1v8.58Z" transform="translate(-11.34 -14.15)"/>
      <path class="k" d="M195.82,200.17a.65.65,0,0,0,.27.58,2.06,2.06,0,0,0,1.13.2v.94h-13.8V201a2.43,2.43,0,0,0,1.24-.51,3.63,3.63,0,0,0,.78-1.28c.11-.26.37-1,.78-2.11s1-2.59,1.64-4.33l2.26-5.81q1.26-3.19,2.5-6.51t2.46-6.48c.8-2.1,1.52-4,2.14-5.65s1.13-3,1.52-4.06.59-1.58.59-1.64q0-.39-.51-.54a7.28,7.28,0,0,0-1-.24v-.93h20.36v.93a4.26,4.26,0,0,0-1,.24q-.39.15-.39.78a19,19,0,0,0,.74,2c.5,1.24,1.13,2.87,1.91,4.87s1.68,4.27,2.7,6.79,2.06,5.09,3.15,7.72,2.15,5.19,3.16,7.68,1.94,4.73,2.77,6.71a7.48,7.48,0,0,0,1.06,1.87,1.46,1.46,0,0,0,1.13.47v.94H218V201c1,0,1.48-.36,1.48-.94a9.72,9.72,0,0,0-.39-1c-.26-.65-.54-1.38-.86-2.18l-.89-2.3a10.38,10.38,0,0,1-.51-1.49H198.31c-.52,1.41-.93,2.55-1.24,3.44s-.56,1.58-.74,2.1-.32.9-.4,1.13A2.23,2.23,0,0,0,195.82,200.17Zm19-13.42-7.56-18.56-7,18.56Z" transform="translate(-11.34 -14.15)"/>
      <path class="k" d="M245,163.2a1.18,1.18,0,0,0-.35-.9,3.55,3.55,0,0,0-1.83-.51v-.93h18.8v.93a4.37,4.37,0,0,0-1.76.35.82.82,0,0,0-.43.67,6.85,6.85,0,0,0,1,1.4c.67.83,1.56,1.87,2.65,3.12s2.33,2.64,3.71,4.17,2.76,3.07,4.17,4.61,2.75,3,4.05,4.36,2.42,2.57,3.36,3.55V163.2c0-.89-.55-1.35-1.64-1.41v-.93h14.28v.93a3.63,3.63,0,0,0-1.84.51,1.22,1.22,0,0,0-.35.9v36.35a1.21,1.21,0,0,0,.35.89,3.43,3.43,0,0,0,1.84.51v.94H276.23V201a3.06,3.06,0,0,0,1.45-.23.74.74,0,0,0,.35-.63,1.11,1.11,0,0,0-.24-.58,10.8,10.8,0,0,0-1-1.21c-.52-.57-1.29-1.39-2.3-2.46s-2.35-2.5-4-4.29-3.72-4-6.16-6.71-5.38-5.94-8.81-9.79v24.5a1.18,1.18,0,0,0,.35.89,3.36,3.36,0,0,0,1.83.51v.94H242.85V201a3.36,3.36,0,0,0,1.83-.51,1.18,1.18,0,0,0,.35-.89Z" transform="translate(-11.34 -14.15)"/>
      <path class="k" d="M313,201a3.43,3.43,0,0,0,1.84-.51,1.21,1.21,0,0,0,.35-.89V170.37H301.74a1.1,1.1,0,0,0-.94.43,4.26,4.26,0,0,0-.46,1.76h-.94V158.67h.94a4.26,4.26,0,0,0,.46,1.76,1.08,1.08,0,0,0,.94.43h38.53a1.08,1.08,0,0,0,.94-.43,4.22,4.22,0,0,0,.47-1.76h.93v13.89h-.93a4.22,4.22,0,0,0-.47-1.76,1.1,1.1,0,0,0-.94-.43H326.86v29.18a1.18,1.18,0,0,0,.35.89A3.36,3.36,0,0,0,329,201v.94H313Z" transform="translate(-11.34 -14.15)"/>
    </g>
  </g>
</svg>
