<svg version="1.1" id="Calque_1" xmlns="http://www.w3.org/2000/svg" x="0px" y="0px"
	 viewBox="0 0 94.6 94.6">
<style>.cls-1{fill:#fff;}</style>
<path class="cls-1" d="M47.3,94.6C21.2,94.6,0,73.4,0,47.3S21.2,0,47.3,0s47.3,21.2,47.3,47.3C94.5,73.4,73.4,94.5,47.3,94.6z
	 M47.3,11C27.2,11,11,27.2,11,47.3s16.3,36.3,36.3,36.3s36.3-16.3,36.3-36.3C83.5,27.2,67.3,11,47.3,11L47.3,11z"/>
<path class="cls-1" d="M71,38.6c0-11-7.2-14.3-7.2-14.3c-3.6-1.7-9.9-2.4-16.4-2.4h-0.2c-6.5,0.1-12.8,0.8-16.4,2.4
	c0,0-7.2,3.2-7.2,14.3c0,2.5,0,5.5,0,8.7c0.3,10.8,2,21.4,11.9,24.1c4.6,1.2,8.5,1.5,11.7,1.3c5.8-0.3,9-2.1,9-2.1l-0.2-4.2
	c0,0-4.1,1.3-8.7,1.1c-4.6-0.2-9.4-0.5-10.2-6.1c-0.1-0.5-0.1-1-0.1-1.6c0,0,4.5,1.1,10.2,1.4c3.5,0.2,6.8-0.2,10.1-0.6
	c6.4-0.8,11.9-4.7,12.6-8.3C71.1,46.7,71,38.6,71,38.6z M62.5,52.8h-5.3v-13c0-2.7-1.1-4.1-3.4-4.1c-2.5,0-3.8,1.6-3.8,4.9v7.1h-5.3
	v-7.1c0-3.3-1.3-4.9-3.8-4.9c-2.3,0-3.4,1.4-3.4,4.1v13h-5.3V39.4c0-2.7,0.7-4.9,2.1-6.5c1.4-1.6,3.3-2.4,5.7-2.4
	c2.7,0,4.8,1,6.1,3.1l1.3,2.2l1.3-2.2c1.4-2.1,3.4-3.1,6.1-3.1c2.3,0,4.2,0.8,5.7,2.4c1.4,1.6,2.1,3.8,2.1,6.5l0,0V52.8z"/>
</svg>
