<svg id="Layer_1" data-name="Layer 1" xmlns="http://www.w3.org/2000/svg" viewBox="0 0 391 280.1"><defs><style>.cls-1{fill:#fff;}.cls-2{fill:#a30097;}</style></defs><path class="cls-1" d="M0,0V252.73A27.36,27.36,0,0,0,27.37,280.1H363.63A27.36,27.36,0,0,0,391,252.73V0Z"/><path class="cls-2" d="M272.68,202q-1.76,2.94-3.74,5.72c-.33.47-.66.93-1,1.38-.18.24-1.26,1.64-.54.72-.7.9-1.42,1.79-2.15,2.66a96.06,96.06,0,0,1-9.42,9.72c-1.71,1.54-3.48,3-5.29,4.44-.19.15-.84.65,0,0l-.55.42-1.39,1c-.94.69-1.88,1.36-2.84,2a119.28,119.28,0,0,1-12,7.2q-3.12,1.63-6.33,3.1c-1,.44-1.93.86-2.91,1.28,1.06-.46-.61.25-.88.36l-1.81.72a133.76,133.76,0,0,1-13.27,4.38,135.14,135.14,0,0,1-13.8,3c-1,.17-2.08.33-3.13.48s1-.12-.19,0l-.7.08-2.08.25q-3.39.36-6.78.56a128.36,128.36,0,0,1-13.59,0q-3.39-.18-6.76-.55l-1.67-.2c-.22,0-.45-.07-.66-.08,1.1.06.33,0,0,0-1.22-.18-2.44-.37-3.66-.59a104,104,0,0,1-14-3.54q-3.42-1.11-6.77-2.46l-1-.42c-.18-.07-.8-.33,0,0l-1.7-.74c-1.13-.5-2.25-1-3.37-1.57a110.38,110.38,0,0,1-12.9-7.37c-.92-.62-1.84-1.25-2.75-1.9l-1.51-1.09-.74-.56c-.16-.12-1.24-1-.42-.31q-2.85-2.22-5.54-4.63a97,97,0,0,1-10.09-10.48c-.39-.47-.78-.95-1.16-1.43l-.45-.58c.66.85-.1-.13-.19-.25-.73-1-1.45-2-2.14-3-1.39-2-2.7-4.08-3.91-6.2s-2.27-4.18-3.27-6.34c-.23-.5-.46-1-.68-1.51-.06-.15-.53-1.29-.12-.27-.09-.23-.18-.45-.28-.68-.48-1.2-.93-2.4-1.35-3.62a80.13,80.13,0,0,1-2.34-8c-.33-1.39-.62-2.79-.87-4.19-.12-.63-.22-1.26-.32-1.89-.06-.35-.11-.69-.16-1-.21-1.39.1.9-.07-.49A91.12,91.12,0,0,1,77,158.91c.08-1.26.19-2.51.32-3.76.08-.7.16-1.39.25-2.08.11-.9,0-.24,0,0,.07-.49.14-1,.22-1.46.41-2.7.94-5.38,1.56-8.05a125.63,125.63,0,0,1,5-16.19c.49-1.26,1-2.51,1.5-3.76.08-.18.44-1,.13-.3.11-.27.22-.53.34-.79.34-.78.68-1.56,1-2.34q1.77-3.9,3.74-7.69a189.13,189.13,0,0,1,17.64-27.63l.47-.61.25-.32c.35-.46.72-.91,1.08-1.37.85-1.06,1.71-2.11,2.58-3.16,1.67-2,3.37-3.95,5.12-5.87q5.11-5.64,10.71-10.82,2.86-2.65,5.85-5.18c1-.84,2-1.67,3-2.49L139,54c.31-.24.62-.48.92-.73-.61.49.11-.08.33-.24,4.08-3.11,8.3-6,12.67-8.72A140.14,140.14,0,0,1,166.43,37c1.17-.56,2.34-1.1,3.52-1.62l.72-.31.53-.23c-.62.27.55-.22.53-.22l1.08-.43q3.6-1.46,7.29-2.67A121.4,121.4,0,0,1,195,27.61c1.21-.23,2.43-.45,3.64-.65.6-.09,1.2-.19,1.81-.27l.72-.11c-1.12.16,0,0,.24,0q3.57-.43,7.16-.65a101.65,101.65,0,0,1,14.07.18c1,.08,2.07.18,3.1.3l.86.1c.68.08,1.36.19,2,.3q3.3.52,6.54,1.27A91.4,91.4,0,0,1,247.88,32c.52.2,1,.42,1.56.63.75.31,0,0-.15-.07l.92.4c1,.45,2,.92,3,1.41q3,1.47,5.88,3.16c1.93,1.13,3.8,2.33,5.63,3.6.83.57,1.64,1.16,2.45,1.77l.66.5c.56.42-.84-.67,0,0l1.44,1.16A86.05,86.05,0,0,1,279,53.85c.76.86,1.5,1.73,2.23,2.62.33.4.65.8,1,1.21.16.2.65.84,0,0l.63.83c1.4,1.88,2.72,3.8,4,5.78a92.49,92.49,0,0,1,6.65,12.61c.1.22.43,1,.06.12l.32.78c.29.72.58,1.44.86,2.17.53,1.38,1,2.77,1.52,4.18,1,2.87,1.85,5.79,2.63,8.73a4.55,4.55,0,0,0,5.53,3.14,4.6,4.6,0,0,0,3.15-5.54c-5.37-20.31-15.75-39.24-32.21-52.64a95.51,95.51,0,0,0-52.69-20.8c-20.82-1.72-41.78,3.2-60.55,12.07-19.29,9.12-36.44,22.74-50.7,38.54-15.26,16.93-28,36.66-36,58-8.2,21.91-10.6,46.51-2.53,68.84,7.08,19.62,21.19,35.85,38.43,47.33a113.7,113.7,0,0,0,57,18.72A136,136,0,0,0,225,251.14c18-7.13,34.77-18,47.14-33a96,96,0,0,0,8.3-11.64,4.51,4.51,0,0,0-7.78-4.55Z"/><path class="cls-2" d="M267,214.36l15.22-14.16L274.57,197l2.21,21.4c.24,2.34,1.9,4.62,4.5,4.5,2.23-.1,4.76-2,4.5-4.5L283.57,197a4.53,4.53,0,0,0-7.69-3.18L260.66,208a4.54,4.54,0,0,0,0,6.36,4.6,4.6,0,0,0,6.37,0Z"/></svg>