<svg xmlns="http://www.w3.org/2000/svg" viewBox="0 0 237.9 227.02"><defs><style>.cls-1{fill:#d8dee8;}</style></defs><g id="Illustration"><path class="cls-1" d="M126,4.35l30.71,62.22a7.78,7.78,0,0,0,5.88,4.27l68.66,10a7.81,7.81,0,0,1,4.33,13.32l-49.68,48.43a7.84,7.84,0,0,0-2.25,6.92l11.73,68.38A7.81,7.81,0,0,1,184,226.11l-61.42-32.29a7.79,7.79,0,0,0-7.27,0L53.9,226.11a7.81,7.81,0,0,1-11.33-8.24L54.3,149.49a7.84,7.84,0,0,0-2.25-6.92L2.37,94.14A7.81,7.81,0,0,1,6.7,80.82l68.66-10a7.78,7.78,0,0,0,5.88-4.27L112,4.35A7.81,7.81,0,0,1,126,4.35Z"/></g></svg>