<svg xmlns="http://www.w3.org/2000/svg" xmlns:xlink="http://www.w3.org/1999/xlink" viewBox="0 0 237.9 227.02"><defs><style>.cls-1{isolation:isolate;}.cls-2{fill:url(#linear-gradient);}.cls-3{opacity:0.3;mix-blend-mode:multiply;}.cls-4{fill:url(#linear-gradient-2);}</style><linearGradient id="linear-gradient" x1="189.55" y1="-8.89" x2="-45.4" y2="407.6" gradientUnits="userSpaceOnUse"><stop offset="0" stop-color="#ffc444"/><stop offset="1" stop-color="#f36f56"/></linearGradient><linearGradient id="linear-gradient-2" x1="189.43" y1="-8.96" x2="-45.51" y2="407.54" xlink:href="#linear-gradient"/></defs><g class="cls-1"><g id="Illustration"><path class="cls-2" d="M126,4.35l30.71,62.22a7.78,7.78,0,0,0,5.88,4.27l68.66,10a7.81,7.81,0,0,1,4.33,13.32l-49.68,48.43a7.84,7.84,0,0,0-2.25,6.92l11.73,68.38A7.81,7.81,0,0,1,184,226.11l-61.42-32.29a7.79,7.79,0,0,0-7.27,0L53.9,226.11a7.81,7.81,0,0,1-11.33-8.24L54.3,149.49a7.84,7.84,0,0,0-2.25-6.92L2.37,94.14A7.81,7.81,0,0,1,6.7,80.82l68.66-10a7.78,7.78,0,0,0,5.88-4.27L112,4.35A7.81,7.81,0,0,1,126,4.35Z"/><g class="cls-3"><path class="cls-4" d="M167.32,178.76c-23.57-22.41-50.11-21.16-60.83-47.06-12-29,13.56-49.33,9.18-84.93a74.59,74.59,0,0,0-10.26-29.18l-24.17,49a7.78,7.78,0,0,1-5.88,4.27L6.7,80.82A7.81,7.81,0,0,0,2.37,94.14l49.68,48.43a7.84,7.84,0,0,1,2.25,6.92L42.57,217.87a7.81,7.81,0,0,0,11.33,8.24l61.41-32.29a7.79,7.79,0,0,1,7.27,0L184,226.11a7.75,7.75,0,0,0,9.25-1.5C187.16,202.3,177.21,188.17,167.32,178.76Z"/></g></g></g></svg>