<svg id="Calque_1" data-name="Calque 1" xmlns="http://www.w3.org/2000/svg" viewBox="0 0 94.56 94.56"><defs><style>.cls-1{fill:#fff;}</style></defs><path class="cls-1" d="M47.28,94.56A47.28,47.28,0,1,1,94.56,47.28,47.33,47.33,0,0,1,47.28,94.56Zm0-83.58a36.3,36.3,0,1,0,36.3,36.3A36.34,36.34,0,0,0,47.28,11Z"/><path class="cls-1" d="M73.07,31.28A21.23,21.23,0,0,1,67,33a10.65,10.65,0,0,0,4.65-5.86,21.2,21.2,0,0,1-6.72,2.57,10.6,10.6,0,0,0-18,9.65A30,30,0,0,1,25.08,28.25a10.59,10.59,0,0,0,3.27,14.14,10.62,10.62,0,0,1-4.79-1.33v.13a10.59,10.59,0,0,0,8.49,10.38,10.73,10.73,0,0,1-2.79.37,10,10,0,0,1-2-.19,10.58,10.58,0,0,0,9.89,7.35A21.26,21.26,0,0,1,24,63.64a20.93,20.93,0,0,1-2.52-.15,30,30,0,0,0,16.22,4.75c19.47,0,30.11-16.12,30.11-30.11,0-.46,0-.92,0-1.37a21.33,21.33,0,0,0,5.28-5.48Zm0,0"/></svg>